<svg width="42" height="39" viewBox="0 0 42 39" fill="none" xmlns="http://www.w3.org/2000/svg">
<path d="M42 22.6474C41.7048 22.964 41.3358 23.0455 40.9023 23.0726C35.8658 23.3712 31.355 26.1309 30.2388 31.795C30.0359 32.8355 29.9898 33.9122 29.8975 34.9799C29.8514 35.4956 29.6024 35.8395 29.178 35.8485C28.7629 35.8485 28.4585 35.5047 28.4493 34.9889C28.4309 33.0707 28.1541 31.2068 27.3885 29.4334C26.1432 26.5471 23.9293 24.7194 20.9498 23.715C19.7322 23.3079 18.4777 23.0726 17.1863 23.0545C16.476 23.0455 16.1254 22.6293 16.3192 22.0773C16.4391 21.7245 16.7158 21.5978 17.0756 21.5797C18.6437 21.5164 20.1565 21.2178 21.6048 20.6296C25.147 19.2091 27.2501 16.6123 28.025 12.975C28.2464 11.9525 28.2648 10.8849 28.3755 9.83528C28.394 9.66337 28.4032 9.49146 28.4401 9.31954C28.5323 8.95762 28.7722 8.77666 29.1504 8.79475C29.5101 8.81285 29.7499 9.01191 29.7868 9.35573C29.8422 9.79004 29.8422 10.2334 29.8699 10.6768C29.9806 12.4411 30.3495 14.1422 31.1521 15.7437C32.4343 18.2952 34.5374 19.9239 37.231 20.8649C38.4855 21.2992 39.7861 21.5254 41.1145 21.5797C41.5019 21.5978 41.7878 21.7606 41.9816 22.0864C42 22.2764 42 22.4574 42 22.6474ZM37.1203 22.2854C33.1814 20.9554 30.451 18.5124 29.1227 14.5584C27.7851 18.5214 25.0547 20.9554 21.1343 22.2854C23.0438 22.9459 24.7134 23.8327 26.1063 25.1537C27.5084 26.4837 28.4678 28.0943 29.1227 30.0034C30.4602 26.0494 33.1907 23.6155 37.1203 22.2854Z" fill="white"/>
<path d="M13.6164 0C13.9761 0 14.2713 0.271442 14.3082 0.66051C14.382 1.28483 14.4097 1.91819 14.5296 2.52441C15.0369 5.03978 16.6235 6.53271 19.1418 7.10274C19.5385 7.19322 19.9443 7.22941 20.3502 7.26561C20.9037 7.31085 21.2542 7.58229 21.2358 8.0166C21.2173 8.469 20.8945 8.72235 20.341 8.75854C18.5145 8.86711 16.9095 9.45524 15.6919 10.8667C14.9447 11.7444 14.5573 12.7759 14.3912 13.8978C14.3359 14.2779 14.3174 14.6669 14.299 15.056C14.2713 15.6713 14.0499 15.997 13.6348 15.997C13.1644 15.997 12.8876 15.6532 12.8784 15.047C12.8507 13.7621 12.6109 12.5225 11.9006 11.4096C10.8859 9.79907 9.33623 9.02998 7.47289 8.77663C7.23305 8.74044 6.98399 8.72235 6.74416 8.6952C6.26449 8.65901 5.99698 8.41471 5.98775 8.0166C5.97853 7.61848 6.28293 7.33799 6.75338 7.2837C7.19615 7.23846 7.64815 7.21132 8.09093 7.12084C10.7568 6.55985 12.5094 4.64166 12.7954 1.98153C12.8415 1.59246 12.8507 1.21244 12.8784 0.823375C12.9153 0.316683 13.2105 0 13.6164 0ZM13.561 4.4607C12.7585 6.0984 11.5778 7.23846 9.91737 7.9985C11.5962 8.76759 12.7862 9.88955 13.561 11.5092C14.3635 9.8805 15.5443 8.73139 17.1955 7.98945C15.5627 7.22036 14.3359 6.12555 13.561 4.4607Z" fill="white"/>
<path d="M7.52825 38.9972C7.17773 38.9882 6.95634 38.6805 6.89177 38.1377C6.7903 37.3052 6.72573 36.4457 6.47667 35.6585C5.76639 33.4236 4.09676 32.2564 1.8091 31.8402C1.41245 31.7678 0.99735 31.7588 0.591474 31.6864C0.194823 31.614 -0.017339 31.3426 0.0011099 30.9806C0.0195588 30.6006 0.240945 30.3925 0.609923 30.3382C1.11727 30.2568 1.64306 30.2296 2.14118 30.1211C4.82549 29.5239 6.52279 27.6328 6.80875 24.9456C6.84565 24.5836 6.86409 24.2217 6.88254 23.8688C6.91022 23.3621 7.17773 23.0455 7.59283 23.0364C8.0356 23.0274 8.27543 23.2898 8.32156 23.8236C8.4138 24.9456 8.51527 26.0585 9.04106 27.09C9.94506 28.8815 11.4579 29.8315 13.4042 30.1934C13.7824 30.2658 14.1606 30.2749 14.5388 30.3292C15.0001 30.4016 15.2676 30.6911 15.2491 31.0621C15.2214 31.4783 14.9355 31.7316 14.4558 31.7588C12.943 31.8673 11.5317 32.2474 10.3509 33.2426C9.19788 34.2198 8.61674 35.4866 8.40458 36.9343C8.33078 37.4591 8.30311 37.9929 8.23854 38.5267C8.21086 38.8525 7.9987 39.0244 7.52825 38.9972ZM11.2273 31.0621C9.55763 30.302 8.34923 29.171 7.57438 27.5424C6.78107 29.1801 5.60035 30.3111 3.94917 31.0802C5.60957 31.8492 6.7903 32.9893 7.59283 34.5999C8.3769 32.9622 9.54841 31.8131 11.2273 31.0621Z" fill="white"/>
</svg>
