<svg width="27" height="43" viewBox="0 0 27 43" fill="none" xmlns="http://www.w3.org/2000/svg">
<path d="M20.6873 12.5877V11.3385C20.6873 9.51285 19.4533 8.02346 17.7446 7.63911C18.2667 7.25475 18.6464 6.58212 18.6464 5.86145V3.45922C18.6464 1.53743 17.1276 0 15.229 0H12.3812C10.9099 0 9.62834 0.960894 9.1537 2.30615C7.72979 1.68156 5.1193 1.24916 0.657723 2.6905C0.135623 2.88268 -0.101694 3.41117 0.0406962 3.93966C0.183087 4.46816 0.75265 4.70838 1.22729 4.56425C6.44828 2.88268 8.44175 3.98771 8.96385 4.42011V5.81341C8.96385 6.53408 9.29609 7.2067 9.86565 7.59106C8.20443 7.97542 6.92291 9.4648 6.92291 11.2905V12.5397C3.41061 12.876 0.610259 15.8547 0.610259 19.5061V39.6849C0.610259 41.5106 2.08163 43 3.88524 43H23.725C25.5286 43 27 41.5106 27 39.6849V19.5061C27 15.8547 24.1996 12.876 20.6873 12.5877ZM12.3812 1.92179H15.229C16.0834 1.92179 16.7479 2.59441 16.7479 3.45922V5.86145C16.7479 6.05363 16.6055 6.14972 16.4631 6.14972H11.1946C11.0048 6.14972 10.9099 6.00559 10.9099 5.86145V4.0838V3.45922C10.8624 2.59441 11.5743 1.92179 12.3812 1.92179ZM8.86892 11.3385C8.86892 10.3296 9.6758 9.4648 10.72 9.4648H16.9852C17.9819 9.4648 18.8363 10.2816 18.8363 11.3385V12.5877H8.86892V11.3385ZM25.1015 39.6849C25.1015 40.4536 24.4844 41.0782 23.725 41.0782H3.93271C3.17329 41.0782 2.55627 40.4536 2.55627 39.6849V19.5061C2.55627 16.7196 4.78705 14.4615 7.53994 14.4615H20.1652C22.9181 14.4615 25.1489 16.7196 25.1489 19.5061V39.6849H25.1015Z" fill="white"/>
</svg>
