<svg width="38" height="37" viewBox="0 0 38 37" fill="none" xmlns="http://www.w3.org/2000/svg">
<path d="M0 13.516V11.7087C0.0296266 11.61 0.0592533 11.5013 0.0790043 11.4026C0.197511 10.5138 0.434524 9.6645 0.809794 8.84483C1.63934 7.00798 2.94291 5.57602 4.69088 4.56872C5.80682 3.92681 7.02151 3.54166 8.30533 3.41328C9.00649 3.34415 9.72741 3.3244 10.4286 3.47253C10.7248 3.54166 10.9322 3.45278 11.1495 3.22564C11.5544 2.801 11.9889 2.38622 12.4531 2.0307C13.9936 0.865389 15.7317 0.193852 17.6673 0.0358438C19.5832 -0.122165 21.4003 0.24323 23.1088 1.11228C24.1951 1.66531 25.1431 2.3961 25.9529 3.29477C26.0912 3.45278 26.2294 3.51203 26.4467 3.47253C27.3256 3.3244 28.2144 3.3244 29.1032 3.45278C30.8117 3.69967 32.3523 4.36133 33.646 5.47727C36.3025 7.77827 37.4382 10.7014 36.8555 14.1875C36.3815 17.0415 34.8113 19.1746 32.3226 20.6362C32.056 20.7942 31.9573 20.9325 31.9573 21.2485C31.9671 25.2185 31.9671 29.1983 31.9671 33.1683C31.9671 33.3263 31.9671 33.4843 31.9573 33.6423C31.898 35.0446 31.2166 36.0519 29.9723 36.6741C29.7353 36.7926 29.4686 36.8617 29.2119 36.9309C29.0637 36.9704 28.9057 37 28.7477 37H8.24608C8.07819 37 7.92018 36.9704 7.7523 36.9309C6.69562 36.6642 5.8957 36.0618 5.40192 35.0841C5.11553 34.5212 5.0464 33.9188 5.0464 33.2967C5.05628 29.2971 5.0464 25.3074 5.06615 21.3078C5.06615 20.9819 4.9674 20.814 4.68101 20.6461C2.20225 19.1845 0.671537 17.0514 0.138258 14.2072C0.0987554 13.9801 0.0493777 13.753 0 13.516ZM6.745 28.5663C14.6158 28.5663 22.4274 28.5663 30.2883 28.5663C30.2883 28.4083 30.2883 28.2601 30.2883 28.1219C30.2883 25.6728 30.3179 23.2335 30.2685 20.7844C30.2587 20.0536 30.5253 19.6684 31.1672 19.3327C33.5373 18.118 34.9199 16.1429 35.2557 13.4962C35.4729 11.7779 35.1273 10.1385 34.1891 8.65719C32.688 6.30681 30.5253 5.12175 27.7404 5.05262C27.6021 5.05262 27.4639 5.07237 27.2861 5.08225C27.3552 5.23038 27.3948 5.31926 27.4441 5.41801C27.8095 6.11918 28.0959 6.85984 28.2934 7.63014C28.4909 8.39055 28.5897 9.16085 28.5996 9.95089C28.6094 10.573 28.2144 10.9582 27.6515 10.9088C27.2071 10.8693 26.9207 10.5237 26.8812 9.97064C26.8615 9.64475 26.8516 9.31885 26.8121 9.00284C26.6047 7.33387 25.9529 5.85254 24.837 4.59834C22.8125 2.33685 20.2745 1.38879 17.2624 1.79369C15.3663 2.05045 13.7665 2.89975 12.4531 4.27245C10.952 5.84266 10.1718 7.71902 10.1126 9.89163C10.1126 10.0496 10.0829 10.2077 10.0434 10.3558C9.89529 10.8496 9.27313 11.0767 8.83861 10.8101C8.48309 10.5928 8.39421 10.257 8.40409 9.88176C8.45346 8.3313 8.80898 6.85984 9.5299 5.48714C9.58915 5.36864 9.6484 5.24026 9.71753 5.11187C9.1645 4.96374 7.76218 5.15138 6.93263 5.41801C3.93047 6.40557 1.82698 9.17072 1.71834 12.2716C1.63934 14.3751 2.31088 16.1922 3.7132 17.7427C4.40449 18.5031 5.22416 19.0858 6.16234 19.5005C6.57711 19.6882 6.76475 19.9943 6.77462 20.4288C6.77462 20.5375 6.77462 20.6461 6.77462 20.7547C6.76475 23.2039 6.76475 25.6431 6.75487 28.0923C6.745 28.2404 6.745 28.3885 6.745 28.5663ZM30.308 30.3143C22.4175 30.3143 14.5961 30.3143 6.71537 30.3143C6.73512 31.5191 6.71537 32.714 6.80425 33.8991C6.85363 34.6101 7.35728 35.0545 8.02882 35.252C8.2757 35.3212 8.55222 35.3212 8.81886 35.3212C15.2873 35.3212 21.7558 35.3212 28.2243 35.3212C28.3922 35.3212 28.5601 35.3113 28.728 35.2915C29.518 35.2125 30.1698 34.6595 30.229 33.8793C30.2982 32.7041 30.2784 31.5191 30.308 30.3143Z" fill="white"/>
<path d="M9.25346 16.8341C9.70774 16.8341 10.0435 17.1205 10.0929 17.6538C10.162 18.4043 10.4287 19.0857 10.8039 19.7178C11.2286 20.4387 11.7125 21.13 12.1766 21.8311C12.2754 21.9793 12.3939 22.1175 12.4828 22.2755C12.7099 22.6804 12.621 23.1446 12.2655 23.4013C11.9001 23.668 11.4458 23.6186 11.1298 23.2631C10.9718 23.0952 10.8434 22.9076 10.7052 22.7298C9.97438 21.7423 9.31272 20.7053 8.84857 19.5696C8.62143 19.0265 8.45354 18.4636 8.40417 17.871C8.36466 17.2686 8.72018 16.8341 9.25346 16.8341Z" fill="white"/>
<path d="M28.6687 17.8217C28.5205 18.3649 28.4119 18.9179 28.2045 19.4413C27.6614 20.8338 26.8417 22.0583 25.9134 23.2138C25.6863 23.5001 25.39 23.6384 25.0246 23.5199C24.679 23.4211 24.4716 23.194 24.4123 22.8385C24.3629 22.562 24.4814 22.325 24.6296 22.0978C25.074 21.446 25.5283 20.7943 25.9628 20.1326C26.3183 19.5894 26.5948 19.0068 26.7726 18.3747C26.8417 18.1081 26.8812 17.8316 26.9306 17.5649C27.0293 17.002 27.5034 16.7848 27.8786 16.844C28.323 16.9033 28.6292 17.2983 28.6687 17.8217Z" fill="white"/>
<path d="M19.366 20.2017C19.366 20.9818 19.366 21.762 19.366 22.5521C19.366 23.0853 19.1487 23.3915 18.7241 23.5199C18.3093 23.6384 17.8451 23.4014 17.7266 22.9866C17.6773 22.8286 17.6575 22.6607 17.6575 22.4928C17.6575 20.9621 17.6476 19.4413 17.6674 17.9105C17.6674 17.6735 17.7365 17.4069 17.855 17.1995C18.0229 16.8835 18.3488 16.7946 18.6944 16.8637C19.0105 16.923 19.2376 17.1205 19.3166 17.4464C19.3561 17.6044 19.3759 17.7822 19.3759 17.9402C19.366 18.6907 19.366 19.4511 19.366 20.2017Z" fill="white"/>
</svg>
