<svg width="75" height="107" viewBox="0 0 75 107" fill="none" xmlns="http://www.w3.org/2000/svg">
<rect width="75" height="75" rx="37.5" fill="#F3F3F3"/>
<path fill-rule="evenodd" clip-rule="evenodd" d="M52.2479 27.8982L47.9619 23.7312C46.9579 22.7563 45.3314 22.7563 44.3274 23.7312L23.7544 43.7327C22.9744 44.491 23.0001 46.3328 23.0001 46.3328V53L29.8577 52.1666C30.7799 52.1371 31.6734 51.8476 32.4293 51.3332L52.2479 31.4318C53.2507 30.4556 53.2507 28.8743 52.2479 27.8982ZM29.8577 49.6664L25.5717 45.4994L46.1446 25.498L50.4306 29.665L29.8577 49.6664Z" fill="black"/>
<path opacity="0.8" d="M26.9453 100.927V102H21.6748V100.927H26.9453ZM21.9414 92.0469V102H20.6221V92.0469H21.9414ZM26.248 96.3262V97.3994H21.6748V96.3262H26.248ZM26.877 92.0469V93.127H21.6748V92.0469H26.877ZM32.9131 100.564V91.5H34.1846V102H33.0225L32.9131 100.564ZM27.9365 98.3838V98.2402C27.9365 97.6751 28.0049 97.1624 28.1416 96.7021C28.2829 96.2373 28.4811 95.8385 28.7363 95.5059C28.9961 95.1732 29.3037 94.918 29.6592 94.7402C30.0192 94.5579 30.4202 94.4668 30.8623 94.4668C31.3271 94.4668 31.7327 94.5488 32.0791 94.7129C32.43 94.8724 32.7262 95.1071 32.9678 95.417C33.2139 95.7223 33.4076 96.0915 33.5488 96.5244C33.6901 96.9574 33.7881 97.4473 33.8428 97.9941V98.623C33.7926 99.1654 33.6947 99.653 33.5488 100.086C33.4076 100.519 33.2139 100.888 32.9678 101.193C32.7262 101.499 32.43 101.733 32.0791 101.897C31.7282 102.057 31.318 102.137 30.8486 102.137C30.4157 102.137 30.0192 102.043 29.6592 101.856C29.3037 101.67 28.9961 101.408 28.7363 101.07C28.4811 100.733 28.2829 100.337 28.1416 99.8809C28.0049 99.4206 27.9365 98.9215 27.9365 98.3838ZM29.208 98.2402V98.3838C29.208 98.7529 29.2445 99.0993 29.3174 99.4229C29.3949 99.7464 29.5133 100.031 29.6729 100.277C29.8324 100.523 30.0352 100.717 30.2812 100.858C30.5273 100.995 30.8213 101.063 31.1631 101.063C31.5824 101.063 31.9264 100.975 32.1953 100.797C32.4688 100.619 32.6875 100.384 32.8516 100.093C33.0156 99.8011 33.1432 99.4844 33.2344 99.1426V97.4951C33.1797 97.2445 33.0999 97.0029 32.9951 96.7705C32.8949 96.5335 32.7627 96.3239 32.5986 96.1416C32.4391 95.9548 32.2409 95.8066 32.0039 95.6973C31.7715 95.5879 31.4958 95.5332 31.1768 95.5332C30.8304 95.5332 30.5319 95.6061 30.2812 95.752C30.0352 95.8932 29.8324 96.0892 29.6729 96.3398C29.5133 96.5859 29.3949 96.873 29.3174 97.2012C29.2445 97.5247 29.208 97.8711 29.208 98.2402ZM37.5273 94.6035V102H36.2559V94.6035H37.5273ZM36.1602 92.6416C36.1602 92.4365 36.2217 92.2633 36.3447 92.1221C36.4723 91.9808 36.6592 91.9102 36.9053 91.9102C37.1468 91.9102 37.3314 91.9808 37.459 92.1221C37.5911 92.2633 37.6572 92.4365 37.6572 92.6416C37.6572 92.8376 37.5911 93.0062 37.459 93.1475C37.3314 93.2842 37.1468 93.3525 36.9053 93.3525C36.6592 93.3525 36.4723 93.2842 36.3447 93.1475C36.2217 93.0062 36.1602 92.8376 36.1602 92.6416ZM42.6543 94.6035V95.5742H38.6553V94.6035H42.6543ZM40.0088 92.8057H41.2734V100.168C41.2734 100.419 41.3122 100.608 41.3896 100.735C41.4671 100.863 41.5674 100.947 41.6904 100.988C41.8135 101.029 41.9456 101.05 42.0869 101.05C42.1917 101.05 42.3011 101.041 42.415 101.022C42.5335 101 42.6224 100.981 42.6816 100.968L42.6885 102C42.5882 102.032 42.4561 102.062 42.292 102.089C42.1325 102.121 41.9388 102.137 41.7109 102.137C41.401 102.137 41.1162 102.075 40.8564 101.952C40.5967 101.829 40.3893 101.624 40.2344 101.337C40.084 101.045 40.0088 100.653 40.0088 100.161V92.8057ZM48.499 100.735V96.9277C48.499 96.6361 48.4398 96.3831 48.3213 96.1689C48.2074 95.9502 48.0342 95.7816 47.8018 95.6631C47.5693 95.5446 47.2822 95.4854 46.9404 95.4854C46.6214 95.4854 46.3411 95.54 46.0996 95.6494C45.8626 95.7588 45.6758 95.9023 45.5391 96.0801C45.4069 96.2578 45.3408 96.4492 45.3408 96.6543H44.0762C44.0762 96.39 44.1445 96.1279 44.2812 95.8682C44.418 95.6084 44.6139 95.3737 44.8691 95.1641C45.1289 94.9499 45.4388 94.7812 45.7988 94.6582C46.1634 94.5306 46.569 94.4668 47.0156 94.4668C47.5534 94.4668 48.0273 94.5579 48.4375 94.7402C48.8522 94.9225 49.1758 95.1982 49.4082 95.5674C49.6452 95.932 49.7637 96.39 49.7637 96.9414V100.387C49.7637 100.633 49.7842 100.895 49.8252 101.173C49.8708 101.451 49.9368 101.69 50.0234 101.891V102H48.7041C48.6403 101.854 48.5902 101.66 48.5537 101.419C48.5173 101.173 48.499 100.945 48.499 100.735ZM48.7178 97.5156L48.7314 98.4043H47.4531C47.0931 98.4043 46.7718 98.4339 46.4893 98.4932C46.2067 98.5479 45.9697 98.6322 45.7783 98.7461C45.5869 98.86 45.4411 99.0036 45.3408 99.1768C45.2406 99.3454 45.1904 99.5436 45.1904 99.7715C45.1904 100.004 45.2428 100.216 45.3477 100.407C45.4525 100.599 45.6097 100.751 45.8193 100.865C46.0335 100.975 46.2956 101.029 46.6055 101.029C46.9928 101.029 47.3346 100.947 47.6309 100.783C47.9271 100.619 48.1618 100.419 48.335 100.182C48.5127 99.9447 48.6084 99.7145 48.6221 99.4912L49.1621 100.1C49.1302 100.291 49.0436 100.503 48.9023 100.735C48.7611 100.968 48.5719 101.191 48.335 101.405C48.1025 101.615 47.8245 101.79 47.501 101.932C47.182 102.068 46.8219 102.137 46.4209 102.137C45.9196 102.137 45.4798 102.039 45.1016 101.843C44.7279 101.647 44.4362 101.385 44.2266 101.057C44.0215 100.724 43.9189 100.353 43.9189 99.9424C43.9189 99.5459 43.9964 99.1973 44.1514 98.8965C44.3063 98.5911 44.5296 98.3382 44.8213 98.1377C45.113 97.9326 45.4639 97.7777 45.874 97.6729C46.2842 97.568 46.7422 97.5156 47.248 97.5156H48.7178ZM53.0176 95.7656V102H51.7529V94.6035H52.9834L53.0176 95.7656ZM55.3281 94.5625L55.3213 95.7383C55.2165 95.7155 55.1162 95.7018 55.0205 95.6973C54.9294 95.6882 54.8245 95.6836 54.7061 95.6836C54.4144 95.6836 54.1569 95.7292 53.9336 95.8203C53.7103 95.9115 53.5212 96.0391 53.3662 96.2031C53.2113 96.3672 53.0882 96.5632 52.9971 96.791C52.9105 97.0143 52.8535 97.2604 52.8262 97.5293L52.4707 97.7344C52.4707 97.2878 52.514 96.8685 52.6006 96.4766C52.6917 96.0846 52.8307 95.7383 53.0176 95.4375C53.2044 95.1322 53.4414 94.8952 53.7285 94.7266C54.0202 94.5534 54.3665 94.4668 54.7676 94.4668C54.8587 94.4668 54.9635 94.4782 55.082 94.501C55.2005 94.5192 55.2826 94.5397 55.3281 94.5625Z" fill="#909090"/>
</svg>
