<svg width="75" height="107" viewBox="0 0 75 107" fill="none" xmlns="http://www.w3.org/2000/svg">
<rect width="75" height="75" rx="37.5" fill="#F3F3F3"/>
<path fill-rule="evenodd" clip-rule="evenodd" d="M49.3846 27.489H43.5766C42.5745 24.7876 40.0353 23 37.2 23C34.3647 23 31.8255 24.7876 30.8234 27.489H25.0154C24.4546 27.489 24 27.9521 24 28.5233C24 29.0945 24.4546 29.5575 25.0154 29.5575H25.6923V50.9315C25.6923 52.0739 26.6015 53 27.7231 53H46C47.1216 53 48.0308 52.0739 48.0308 50.9315V29.5575H49.3846C49.9454 29.5575 50.4 29.0945 50.4 28.5233C50.4 27.9521 49.9454 27.489 49.3846 27.489ZM37.2 25.0758C39.048 25.0758 40.6523 25.7653 41.4443 27.489H32.9557C33.7477 25.7584 35.352 25.0758 37.2 25.0758ZM46 50.9315H43.2923V39.2103C43.2923 38.6391 42.8377 38.1761 42.2769 38.1761C41.7161 38.1761 41.2615 38.6391 41.2615 39.2103V50.9315H37.8769V35.0734C37.8769 34.5022 37.4223 34.0392 36.8615 34.0392C36.3008 34.0392 35.8462 34.5022 35.8462 35.0734V50.9315H32.4615V39.2103C32.4615 38.6391 32.0069 38.1761 31.4462 38.1761C30.8854 38.1761 30.4308 38.6391 30.4308 39.2103V50.9315H27.7231V29.5575H46V50.9315Z" fill="black"/>
<path opacity="0.8" d="M19.7061 100.927V102H14.4355V100.927H19.7061ZM14.7021 92.0469V102H13.3828V92.0469H14.7021ZM19.0088 96.3262V97.3994H14.4355V96.3262H19.0088ZM19.6377 92.0469V93.127H14.4355V92.0469H19.6377ZM22.5225 91.5V102H21.251V91.5H22.5225ZM25.9268 94.6035V102H24.6553V94.6035H25.9268ZM24.5596 92.6416C24.5596 92.4365 24.6211 92.2633 24.7441 92.1221C24.8717 91.9808 25.0586 91.9102 25.3047 91.9102C25.5462 91.9102 25.7308 91.9808 25.8584 92.1221C25.9906 92.2633 26.0566 92.4365 26.0566 92.6416C26.0566 92.8376 25.9906 93.0062 25.8584 93.1475C25.7308 93.2842 25.5462 93.3525 25.3047 93.3525C25.0586 93.3525 24.8717 93.2842 24.7441 93.1475C24.6211 93.0062 24.5596 92.8376 24.5596 92.6416ZM29.2148 96.0732V102H27.9434V94.6035H29.1465L29.2148 96.0732ZM28.9551 98.0215L28.3672 98.001C28.3717 97.4951 28.4378 97.028 28.5654 96.5996C28.693 96.1667 28.8822 95.7907 29.1328 95.4717C29.3835 95.1527 29.6956 94.9066 30.0693 94.7334C30.443 94.5557 30.876 94.4668 31.3682 94.4668C31.7145 94.4668 32.0335 94.5169 32.3252 94.6172C32.6169 94.7129 32.8698 94.8656 33.084 95.0752C33.2982 95.2848 33.4645 95.5537 33.583 95.8818C33.7015 96.21 33.7607 96.6064 33.7607 97.0713V102H32.4961V97.1328C32.4961 96.7454 32.43 96.4355 32.2979 96.2031C32.1702 95.9707 31.988 95.8021 31.751 95.6973C31.514 95.5879 31.236 95.5332 30.917 95.5332C30.5433 95.5332 30.2311 95.5993 29.9805 95.7314C29.7298 95.8636 29.5293 96.0459 29.3789 96.2783C29.2285 96.5107 29.1191 96.7773 29.0508 97.0781C28.987 97.3743 28.9551 97.6888 28.9551 98.0215ZM33.7471 97.3242L32.8994 97.584C32.904 97.1784 32.9701 96.7887 33.0977 96.415C33.2298 96.0413 33.4189 95.7087 33.665 95.417C33.9157 95.1253 34.2233 94.8952 34.5879 94.7266C34.9525 94.5534 35.3695 94.4668 35.8389 94.4668C36.2354 94.4668 36.5863 94.5192 36.8916 94.624C37.2015 94.7288 37.4613 94.8906 37.6709 95.1094C37.8851 95.3236 38.0469 95.5993 38.1562 95.9365C38.2656 96.2738 38.3203 96.6748 38.3203 97.1396V102H37.0488V97.126C37.0488 96.7113 36.9827 96.39 36.8506 96.1621C36.723 95.9297 36.5407 95.7679 36.3037 95.6768C36.0713 95.5811 35.7933 95.5332 35.4697 95.5332C35.1917 95.5332 34.9456 95.5811 34.7314 95.6768C34.5173 95.7725 34.3372 95.9046 34.1914 96.0732C34.0456 96.2373 33.9339 96.4264 33.8564 96.6406C33.7835 96.8548 33.7471 97.0827 33.7471 97.3242ZM41.6084 94.6035V102H40.3369V94.6035H41.6084ZM40.2412 92.6416C40.2412 92.4365 40.3027 92.2633 40.4258 92.1221C40.5534 91.9808 40.7402 91.9102 40.9863 91.9102C41.2279 91.9102 41.4124 91.9808 41.54 92.1221C41.6722 92.2633 41.7383 92.4365 41.7383 92.6416C41.7383 92.8376 41.6722 93.0062 41.54 93.1475C41.4124 93.2842 41.2279 93.3525 40.9863 93.3525C40.7402 93.3525 40.5534 93.2842 40.4258 93.1475C40.3027 93.0062 40.2412 92.8376 40.2412 92.6416ZM44.9033 96.1826V102H43.6387V94.6035H44.835L44.9033 96.1826ZM44.6025 98.0215L44.0762 98.001C44.0807 97.4951 44.1559 97.028 44.3018 96.5996C44.4476 96.1667 44.6527 95.7907 44.917 95.4717C45.1813 95.1527 45.4958 94.9066 45.8604 94.7334C46.2295 94.5557 46.6374 94.4668 47.084 94.4668C47.4486 94.4668 47.7767 94.5169 48.0684 94.6172C48.36 94.7129 48.6084 94.8678 48.8135 95.082C49.0231 95.2962 49.1826 95.5742 49.292 95.916C49.4014 96.2533 49.4561 96.6657 49.4561 97.1533V102H48.1846V97.1396C48.1846 96.7523 48.1276 96.4424 48.0137 96.21C47.8997 95.973 47.7334 95.8021 47.5146 95.6973C47.2959 95.5879 47.027 95.5332 46.708 95.5332C46.3936 95.5332 46.1064 95.5993 45.8467 95.7314C45.5915 95.8636 45.3704 96.0459 45.1836 96.2783C45.0013 96.5107 44.8577 96.7773 44.7529 97.0781C44.6527 97.3743 44.6025 97.6888 44.6025 98.0215ZM55.7383 100.735V96.9277C55.7383 96.6361 55.679 96.3831 55.5605 96.1689C55.4466 95.9502 55.2734 95.7816 55.041 95.6631C54.8086 95.5446 54.5215 95.4854 54.1797 95.4854C53.8607 95.4854 53.5804 95.54 53.3389 95.6494C53.1019 95.7588 52.915 95.9023 52.7783 96.0801C52.6462 96.2578 52.5801 96.4492 52.5801 96.6543H51.3154C51.3154 96.39 51.3838 96.1279 51.5205 95.8682C51.6572 95.6084 51.8532 95.3737 52.1084 95.1641C52.3682 94.9499 52.6781 94.7812 53.0381 94.6582C53.4027 94.5306 53.8083 94.4668 54.2549 94.4668C54.7926 94.4668 55.2666 94.5579 55.6768 94.7402C56.0915 94.9225 56.415 95.1982 56.6475 95.5674C56.8844 95.932 57.0029 96.39 57.0029 96.9414V100.387C57.0029 100.633 57.0234 100.895 57.0645 101.173C57.11 101.451 57.1761 101.69 57.2627 101.891V102H55.9434C55.8796 101.854 55.8294 101.66 55.793 101.419C55.7565 101.173 55.7383 100.945 55.7383 100.735ZM55.957 97.5156L55.9707 98.4043H54.6924C54.3324 98.4043 54.0111 98.4339 53.7285 98.4932C53.446 98.5479 53.209 98.6322 53.0176 98.7461C52.8262 98.86 52.6803 99.0036 52.5801 99.1768C52.4798 99.3454 52.4297 99.5436 52.4297 99.7715C52.4297 100.004 52.4821 100.216 52.5869 100.407C52.6917 100.599 52.849 100.751 53.0586 100.865C53.2728 100.975 53.5348 101.029 53.8447 101.029C54.2321 101.029 54.5739 100.947 54.8701 100.783C55.1663 100.619 55.401 100.419 55.5742 100.182C55.752 99.9447 55.8477 99.7145 55.8613 99.4912L56.4014 100.1C56.3695 100.291 56.2829 100.503 56.1416 100.735C56.0003 100.968 55.8112 101.191 55.5742 101.405C55.3418 101.615 55.0638 101.79 54.7402 101.932C54.4212 102.068 54.0612 102.137 53.6602 102.137C53.1589 102.137 52.7191 102.039 52.3408 101.843C51.9671 101.647 51.6755 101.385 51.4658 101.057C51.2607 100.724 51.1582 100.353 51.1582 99.9424C51.1582 99.5459 51.2357 99.1973 51.3906 98.8965C51.5456 98.5911 51.7689 98.3382 52.0605 98.1377C52.3522 97.9326 52.7031 97.7777 53.1133 97.6729C53.5234 97.568 53.9814 97.5156 54.4873 97.5156H55.957ZM60.2568 95.7656V102H58.9922V94.6035H60.2227L60.2568 95.7656ZM62.5674 94.5625L62.5605 95.7383C62.4557 95.7155 62.3555 95.7018 62.2598 95.6973C62.1686 95.6882 62.0638 95.6836 61.9453 95.6836C61.6536 95.6836 61.3962 95.7292 61.1729 95.8203C60.9495 95.9115 60.7604 96.0391 60.6055 96.2031C60.4505 96.3672 60.3275 96.5632 60.2363 96.791C60.1497 97.0143 60.0928 97.2604 60.0654 97.5293L59.71 97.7344C59.71 97.2878 59.7533 96.8685 59.8398 96.4766C59.931 96.0846 60.07 95.7383 60.2568 95.4375C60.4437 95.1322 60.6807 94.8952 60.9678 94.7266C61.2594 94.5534 61.6058 94.4668 62.0068 94.4668C62.098 94.4668 62.2028 94.4782 62.3213 94.501C62.4398 94.5192 62.5218 94.5397 62.5674 94.5625Z" fill="#909090"/>
</svg>
