<?xml version="1.0" standalone="no"?>
<!DOCTYPE svg PUBLIC "-//W3C//DTD SVG 20010904//EN"
 "http://www.w3.org/TR/2001/REC-SVG-20010904/DTD/svg10.dtd">
<svg version="1.0" xmlns="http://www.w3.org/2000/svg"
 width="32.000000pt" height="32.000000pt" viewBox="0 0 32.000000 32.000000"
 preserveAspectRatio="xMidYMid meet">

<g transform="translate(0.000000,32.000000) scale(0.100000,-0.100000)"
fill="#000000" stroke="none">
<path d="M0 160 l0 -160 160 0 160 0 0 160 0 160 -160 0 -160 0 0 -160z m207
74 l44 -25 -3 -72 -3 -72 -85 0 -85 0 -3 72 -3 71 43 26 c24 14 45 26 47 26 2
0 24 -12 48 -26z"/>
<path d="M113 219 c-31 -20 -33 -24 -33 -80 l0 -59 80 0 80 0 0 59 c0 57 -2
60 -34 80 -41 26 -53 26 -93 0z m60 -36 c-7 -2 -19 -2 -25 0 -7 3 -2 5 12 5
14 0 19 -2 13 -5z"/>
</g>
</svg>
