<svg width="37" height="37" viewBox="0 0 37 37" fill="none" xmlns="http://www.w3.org/2000/svg">
<path d="M37 4.52676C36.7729 5.01421 36.3679 5.17337 35.8544 5.16342C35.4297 5.15348 35.0149 5.16342 34.5408 5.16342C34.5408 5.30269 34.5408 5.41212 34.5408 5.53149C34.5408 5.9294 34.5507 6.32732 34.5408 6.73518C34.5309 7.0933 34.3926 7.40168 34.047 7.56084C33.7408 7.71006 33.4445 7.66032 33.168 7.46137C32.9013 7.26241 32.842 6.96398 32.8322 6.65559C32.8223 6.28753 32.8322 5.9294 32.8322 5.56134C32.8322 5.44196 32.8223 5.32259 32.8124 5.17337C32.3976 5.17337 32.0025 5.17337 31.6075 5.17337C31.4297 5.17337 31.242 5.16342 31.0741 5.13358C30.6692 5.06395 30.3828 4.72572 30.3729 4.33776C30.363 3.96969 30.6297 3.61157 31.005 3.51209C31.1433 3.4723 31.2914 3.4723 31.4297 3.46235C31.884 3.4524 32.3383 3.46235 32.8322 3.46235C32.8322 3.00475 32.8322 2.58694 32.8322 2.16913C32.8322 2.00002 32.8519 1.83091 32.8815 1.66179C32.9704 1.24399 33.2568 0.995292 33.6519 0.985344C34.0667 0.965448 34.3926 1.2042 34.4914 1.63195C34.5309 1.78117 34.5408 1.94033 34.5408 2.0995C34.5507 2.54715 34.5408 2.98485 34.5408 3.4723C34.9852 3.4723 35.3902 3.49219 35.7951 3.46235C36.3186 3.42256 36.7334 3.57177 37 4.04927C37 4.18854 37 4.35765 37 4.52676Z" fill="white"/>
<path d="M31.5877 25.0491C31.5778 27.0586 31.1037 28.8989 30.205 30.6099C29.4149 32.1121 28.3581 33.3754 27.0346 34.4299C25.5828 35.5838 23.9532 36.3598 22.1557 36.7378C20.7828 37.0362 19.3902 37.076 17.9977 36.8771C16.6742 36.688 15.4298 36.2901 14.2446 35.6734C13.0199 35.0467 11.9434 34.221 11.0051 33.2163C10.0767 32.2314 9.34585 31.1173 8.79277 29.8738C8.34833 28.879 8.06191 27.8345 7.88413 26.7502C7.54833 24.6512 7.90388 22.6318 8.49647 20.6223C9.26684 18.0061 10.3533 15.5191 11.5582 13.072C13.7014 8.71481 16.2001 4.56658 18.8767 0.517819C19.0643 0.229333 19.2816 0.0104812 19.6569 0.000533372C19.9729 -0.00941444 20.2199 0.119907 20.3976 0.37855C20.5952 0.657089 20.7828 0.935627 20.9705 1.22411C23.5581 5.22313 26.0075 9.31168 28.0815 13.6091C29.3161 16.1558 30.4124 18.7621 31.1235 21.5077C31.4 22.6915 31.6173 23.8852 31.5877 25.0491ZM19.6767 2.41785C19.5878 2.54717 19.5088 2.6367 19.4495 2.73618C18.373 4.49694 17.2668 6.24776 16.2199 8.02841C14.6199 10.7342 13.1384 13.5097 11.8742 16.3846C10.9261 18.5432 10.0767 20.7318 9.63227 23.0695C9.37548 24.4622 9.37548 25.8449 9.68165 27.2177C10.0273 28.7895 10.7088 30.212 11.7162 31.4655C12.8619 32.888 14.2841 33.9325 15.9828 34.599C17.6322 35.2456 19.331 35.4247 21.0791 35.1859C23.0149 34.9173 24.7235 34.1414 26.2149 32.888C27.7062 31.6346 28.763 30.0628 29.3754 28.2026C29.7803 26.9591 29.9581 25.6858 29.8593 24.3727C29.7704 23.0993 29.4642 21.8658 29.0889 20.6522C28.3778 18.3841 27.4297 16.2155 26.3828 14.0966C24.6939 10.6546 22.7779 7.34202 20.7433 4.08908C20.3976 3.54195 20.0421 2.99482 19.6767 2.41785Z" fill="white"/>
<path d="M2.45206 28.9387C2.45206 28.4512 2.45206 28.0036 2.45206 27.5559C2.45206 27.3968 2.47181 27.2376 2.51132 27.0884C2.61008 26.7104 2.97551 26.4219 3.33107 26.4617C3.71625 26.5015 4.05205 26.7203 4.11131 27.1381C4.14094 27.3868 4.16069 27.6455 4.16069 27.8942C4.17057 28.2224 4.16069 28.5507 4.16069 28.9387C4.31872 28.9387 4.45699 28.9387 4.59526 28.9387C5.0397 28.9486 5.48414 28.9387 5.92858 28.9884C6.34339 29.0382 6.61994 29.3963 6.62981 29.7842C6.63969 30.1523 6.37302 30.5005 5.98784 30.6C5.84957 30.6398 5.70142 30.6497 5.56315 30.6497C5.11871 30.6597 4.67427 30.6497 4.17057 30.6497C4.17057 30.7989 4.17057 30.9382 4.17057 31.0775C4.15081 31.5351 4.17057 32.0026 4.11131 32.4503C4.06193 32.8581 3.72613 33.1068 3.33107 33.1267C3.01502 33.1466 2.58045 32.888 2.51132 32.5C2.48169 32.3508 2.46194 32.1916 2.46194 32.0325C2.45206 31.5848 2.46194 31.1372 2.46194 30.6497C1.98786 30.6497 1.53355 30.6597 1.07923 30.6497C0.901451 30.6497 0.713798 30.6298 0.545897 30.5801C0.190344 30.4706 -0.0269389 30.1026 0.0026906 29.7246C0.0323201 29.3664 0.289109 29.0481 0.644662 28.9884C0.901451 28.9387 1.16812 28.9387 1.43478 28.9287C1.75083 28.9287 2.07675 28.9387 2.45206 28.9387Z" fill="white"/>
<path d="M27.6963 25.3177C27.5185 28.9089 25.0395 32.0027 21.484 32.8383C20.9408 32.9676 20.368 33.0173 19.805 33.0571C19.163 33.0969 18.7482 32.6294 18.8569 32.0425C18.9161 31.7042 19.1235 31.4655 19.4593 31.4058C19.8346 31.3362 20.2198 31.3262 20.605 31.2665C22.7284 30.9283 24.2692 29.7744 25.2766 27.8843C25.7111 27.0785 25.9284 26.2031 25.958 25.2779C25.9679 25.0591 25.9976 24.8402 26.0766 24.6413C26.2148 24.3031 26.5111 24.1538 26.8568 24.1538C27.2025 24.1439 27.5284 24.4025 27.6272 24.7607C27.6667 24.9298 27.6667 25.1287 27.6963 25.3177Z" fill="white"/>
</svg>
