<svg width="19" height="44" viewBox="0 0 19 44" fill="none" xmlns="http://www.w3.org/2000/svg">
<path d="M11.4807 0C11.8737 0 12.2666 0.0761216 12.6171 0.260988C12.6171 0.260988 12.6171 0.260988 12.6277 0.260988C13.7004 0.804714 14.2633 1.7073 14.2845 2.93612C14.3058 4.12144 14.2951 5.31763 14.2845 6.50296C14.2845 6.84007 14.3695 7.09018 14.5925 7.34029C15.9094 8.7866 17.2051 10.2655 18.5221 11.7118C18.8301 12.0598 19 12.5057 19 12.9733C18.9894 16.2248 19.0106 19.4762 18.9788 22.7277C18.9681 23.7391 18.8619 24.7504 18.777 25.7617C18.692 26.86 18.5858 27.9584 18.4796 29.0567C18.3734 30.2094 18.2672 31.3621 18.1716 32.5148C18.076 33.6022 17.9911 34.6788 17.8955 35.7663C17.7999 36.8972 17.6937 38.0173 17.5875 39.1374C17.4919 40.2248 17.3963 41.3014 17.3007 42.3888C17.2795 42.6389 17.2582 42.8891 17.2264 43.1283C17.1945 43.3349 17.1202 43.5307 16.9821 43.6938C16.6954 44.0418 16.3874 43.9983 16.0688 43.9983C11.6719 43.9983 2.77194 43.9983 2.71884 43.9983C2.14533 43.9874 1.82672 43.7047 1.763 43.1392C1.66741 42.291 1.59307 41.4319 1.51873 40.5728C1.41252 39.4201 1.30632 38.2674 1.21073 37.1147C1.11515 36.049 1.03018 34.9724 0.9346 33.9067C0.839016 32.7649 0.732812 31.6231 0.626607 30.4921C0.531023 29.4047 0.435439 28.3281 0.339855 27.2406C0.23365 26.0879 0.127445 24.9244 0.0318614 23.7717C0.0106205 23.5759 0.0106205 23.3802 0.0106205 23.1845C0.0106205 19.7372 0.0106205 16.2791 0 12.8319C0 12.4296 0.116825 12.1142 0.382336 11.8315C1.74176 10.3308 3.06931 8.81923 4.41811 7.32942C4.58804 7.13368 4.68362 6.88356 4.68362 6.62258C4.673 5.459 4.68362 4.28456 4.673 3.12098C4.673 2.07703 4.99161 1.1962 5.83063 0.576349C6.03242 0.43498 6.25545 0.326235 6.47848 0.228365C6.81833 0.0761216 7.17943 0 7.55115 0H11.4807ZM3.45165 42.1822C7.50866 42.1822 11.5232 42.1822 15.5377 42.1822C16.0688 36.2012 16.5892 30.242 17.1202 24.2719C12.0117 24.2719 6.94578 24.2719 1.85858 24.2719C2.40022 30.2529 2.92063 36.2121 3.45165 42.1822ZM16.0688 11.6683C15.0704 10.5483 14.1252 9.49345 13.1906 8.43862C13.0419 8.2755 12.8826 8.2755 12.7021 8.2755C10.578 8.2755 8.45388 8.28638 6.31917 8.2755C6.05366 8.2755 5.87311 8.3625 5.70319 8.55824C4.98099 9.3847 4.24818 10.1894 3.52599 11.005C3.34544 11.2116 3.15428 11.4291 2.94187 11.6792C7.33874 11.6683 11.6613 11.6683 16.0688 11.6683ZM17.2158 13.5279C12.0542 13.5279 6.92454 13.5279 1.80548 13.5279C1.80548 14.126 1.80548 14.6915 1.80548 15.2569C6.9564 15.2569 12.0755 15.2569 17.2158 15.2569C17.2158 14.6697 17.2158 14.1151 17.2158 13.5279ZM12.5215 6.44858C12.5215 6.27459 12.5215 6.13322 12.5215 5.99185C12.5215 4.9479 12.5428 3.90395 12.5109 2.86C12.4897 2.24015 12.0117 1.81604 11.3958 1.81604C10.1532 1.80517 8.91056 1.81604 7.66797 1.81604C6.9033 1.81604 6.46786 2.25102 6.46786 3.02311C6.45724 4.05619 6.46786 5.08927 6.46786 6.11147C6.46786 6.22022 6.4891 6.32896 6.49972 6.44858C8.49637 6.44858 10.4824 6.44858 12.5215 6.44858ZM1.79486 18.8129C6.9564 18.8129 12.0861 18.8129 17.2264 18.8129C17.2264 18.5084 17.2264 18.2365 17.2264 17.9647C17.2264 17.6819 17.2264 17.3992 17.2264 17.1273C12.0436 17.1273 6.92454 17.1273 1.79486 17.1273C1.79486 17.7037 1.79486 18.2474 1.79486 18.8129ZM1.80548 20.7051C1.80548 21.2923 1.80548 21.8469 1.80548 22.4232C6.9564 22.4232 12.0755 22.4232 17.1945 22.4232C17.1945 21.836 17.1945 21.2705 17.1945 20.7051C12.0436 20.7051 6.93516 20.7051 1.80548 20.7051Z" fill="white"/>
</svg>
