<svg width="37" height="37" viewBox="0 0 37 37" fill="none" xmlns="http://www.w3.org/2000/svg">
<path d="M4.0625 0.00902994C4.83003 0.0812694 5.40793 0.496646 5.92263 1.02941C6.4012 1.52606 6.88881 2.01368 7.36738 2.50129C7.41253 2.55547 7.47574 2.59159 7.54798 2.63674C7.62021 2.59159 7.69245 2.54644 7.76469 2.50129C8.18006 2.21233 8.61348 2.24845 8.9837 2.59159C9.05594 2.6548 9.11915 2.72704 9.19139 2.79928C17.0382 10.6463 24.876 18.4843 32.7228 26.3223C34.0321 27.6226 34.9171 29.1577 35.4408 30.9185C35.8923 32.4355 36.3708 33.9435 36.8404 35.4515C36.8946 35.6231 36.9487 35.7947 36.9849 35.9753C37.0932 36.6164 36.6056 37.113 35.9735 36.9776C35.5401 36.8873 35.1157 36.7338 34.6913 36.5983C33.1834 36.1288 31.6664 35.6773 30.1674 35.1716C28.6866 34.675 27.4224 33.8261 26.3208 32.7245C22.1942 28.5978 18.0676 24.4711 13.941 20.3444C10.4555 16.886 6.98813 13.4185 3.52072 9.95099C3.40333 9.8336 3.27692 9.73427 3.14147 9.60785C2.78931 9.9239 2.59969 10.3032 2.49133 10.7095C2.2385 11.6125 2.41007 12.4342 2.997 13.1656C3.1505 13.3553 3.31304 13.5359 3.4846 13.6984C5.69688 15.9107 7.90916 18.1231 10.1214 20.3354C10.2208 20.4347 10.3291 20.5341 10.4194 20.6515C10.6903 21.0036 10.6723 21.4912 10.3923 21.7802C10.1034 22.0782 9.58869 22.1143 9.2275 21.8524C9.12818 21.7802 9.04691 21.6989 8.95661 21.6086C6.645 19.306 4.34243 16.9943 2.03985 14.6917C1.16396 13.8158 0.676359 12.7593 0.658299 11.5222C0.63121 10.3302 1.05561 9.28278 1.85925 8.39784C2.03985 8.19918 2.2385 8.01858 2.41909 7.82895C2.6629 7.57612 2.67193 7.54 2.43715 7.29619C2.21141 7.06141 1.96761 6.84469 1.74187 6.60991C1.34456 6.20357 0.929191 5.81528 0.558972 5.38184C-0.100197 4.62333 -0.181465 3.35011 0.342259 2.46517C0.477705 2.23942 0.64024 2.02271 0.820834 1.83308C1.13687 1.48994 1.48 1.15583 1.8141 0.830754C2.25656 0.388287 2.76222 0.0722395 3.3943 0.0180599C3.67423 -0.00902994 3.97221 0 4.0625 0.00902994ZM17.8689 13.9603C17.7967 13.879 17.7335 13.7887 17.6613 13.7165C14.6453 10.7005 11.6294 7.68448 8.61348 4.66848C8.34259 4.39758 8.3155 4.39758 8.03558 4.67751C6.90687 5.80625 5.77815 6.93499 4.64944 8.06373C4.36951 8.34366 4.36951 8.37075 4.64944 8.64165C7.65633 11.6486 10.6632 14.6556 13.6701 17.6626C13.9591 17.9515 13.9771 17.9515 14.2751 17.6535C15.3948 16.5338 16.5145 15.4141 17.6342 14.2944C17.6884 14.2402 17.7425 14.1951 17.7786 14.1319C17.8148 14.0867 17.8328 14.0325 17.8689 13.9603ZM31.8831 27.9838C31.7837 27.8664 31.7025 27.758 31.6122 27.6677C28.6143 24.6698 25.6164 21.6718 22.6186 18.6739C22.3477 18.403 22.3296 18.403 22.0678 18.6649C20.921 19.8117 19.7742 20.9495 18.6365 22.0963C18.3836 22.3491 18.3836 22.3672 18.6365 22.62C19.1692 23.1618 19.711 23.6946 20.2528 24.2363C22.6908 26.6744 25.1379 29.1215 27.5759 31.5596C27.9642 31.9479 27.9642 31.9479 28.3615 31.5506C29.0748 30.8372 29.7972 30.1148 30.5106 29.4015C30.8988 29.0132 31.2781 28.6339 31.6573 28.2456C31.7386 28.1734 31.8018 28.0831 31.8831 27.9838ZM17.1104 20.9765C18.3927 19.6943 19.6839 18.403 21.0023 17.0846C20.9661 17.0395 20.8939 16.9492 20.8126 16.8679C20.3611 16.4164 19.9097 15.9649 19.4582 15.5134C19.1602 15.2245 19.1602 15.2245 18.8532 15.5225C17.7335 16.6422 16.6138 17.7619 15.4941 18.8816C15.4038 18.9719 15.3226 19.0712 15.2684 19.1435C15.9185 19.7756 16.5325 20.3986 17.1104 20.9765ZM32.9757 29.4827C32.5603 29.7446 29.6076 32.7335 29.4992 32.9683C29.9959 33.3566 34.2579 34.7833 34.7455 34.7201C34.7365 34.6388 34.7455 34.5485 34.7184 34.4763C34.2759 33.0767 33.8245 31.668 33.3639 30.2683C33.2827 30.0065 33.1201 29.7627 32.9757 29.4827ZM4.19795 1.85114C3.83676 1.66151 3.38527 1.71569 3.08729 1.99562C3.08729 1.99562 3.07826 1.99562 3.07826 2.00465C2.70805 2.36584 2.3288 2.72704 1.98567 3.1063C1.63351 3.48556 1.63351 4.00929 1.98567 4.38855C2.55454 4.98452 3.14147 5.55341 3.71937 6.14036C3.89094 6.31193 4.02639 6.27581 4.21601 6.02297C4.69458 5.37281 5.25443 4.78587 5.9136 4.30728C6.22061 4.08153 6.34702 3.92802 6.13031 3.7113C5.54338 3.13339 4.98354 2.53741 4.38757 1.97756C4.3334 1.93241 4.26116 1.88726 4.19795 1.85114Z" fill="white"/>
</svg>
