<svg width="39" height="37" viewBox="0 0 39 37" fill="none" xmlns="http://www.w3.org/2000/svg">
<path d="M38.5861 14.2831C38.5243 14.5714 38.4626 14.87 38.3905 15.1584C37.6284 17.9079 35.8572 19.6585 33.0768 20.2661C30.2861 20.8736 27.4851 19.6894 25.9095 17.2591C25.1887 16.147 24.818 14.9215 24.8077 13.6034C24.7665 10.4008 26.9496 7.59978 30.0596 6.82744C33.9109 5.88004 37.8138 8.4133 38.5037 12.3162C38.5243 12.45 38.5655 12.5736 38.5964 12.7075C38.5861 13.2224 38.5861 13.7476 38.5861 14.2831ZM26.4141 13.4695C26.4038 16.3632 28.6488 18.7008 31.5115 18.7935C34.4979 18.8965 36.9282 16.5898 36.9797 13.5725C37.0312 10.6067 34.7039 8.4133 32.0573 8.23824C29.0195 8.04258 26.445 10.4317 26.4141 13.4695Z" fill="white"/>
<path d="M11.8736 37C5.31391 36.9691 0.0414381 31.7172 0.000246878 25.1987C-0.0409443 18.7832 5.07706 13.2841 11.8324 13.2532C18.3406 13.2224 23.6852 18.433 23.7264 25.0648C23.7676 31.6039 18.5363 36.9382 11.8736 37ZM22.1199 25.1472C22.1302 19.5246 17.5992 14.9318 11.9766 14.87C6.38488 14.8082 1.617 19.2775 1.617 25.1163C1.617 30.8213 6.16863 35.3008 11.7397 35.3729C17.4447 35.4553 22.0993 30.8522 22.1199 25.1472Z" fill="white"/>
<path d="M13.1094 0C15.7868 0.0308934 17.8567 2.14194 17.8464 4.74729C17.8361 7.53799 15.55 9.46368 13.13 9.47398C10.5967 9.48428 8.38271 7.43501 8.37241 4.74729C8.36211 2.13165 10.4938 0 13.1094 0ZM9.98917 4.73699C9.99946 6.42583 11.2867 7.84693 13.0888 7.85722C14.9527 7.86752 16.2296 6.36404 16.209 4.72669C16.1987 3.00696 14.7982 1.61676 13.0888 1.61676C11.3897 1.61676 9.98917 3.01726 9.98917 4.73699Z" fill="white"/>
<path d="M31.8823 17.5886C29.8742 17.496 28.1854 16.0646 27.7529 14.108C27.6911 13.8402 27.6705 13.5622 27.6499 13.2842C27.619 12.7384 27.9176 12.3677 28.381 12.3265C28.8341 12.2853 29.2049 12.6354 29.2358 13.1709C29.2872 13.8711 29.4932 14.4993 29.9772 15.0142C30.4715 15.5497 31.0688 15.8792 31.8102 15.941C31.9338 15.9513 32.0574 15.9719 32.1809 16.0028C32.6546 16.0955 32.9018 16.3941 32.8812 16.8266C32.8606 17.2282 32.5619 17.5269 32.1294 17.5783C32.0574 17.5886 31.9956 17.5886 31.8823 17.5886Z" fill="white"/>
<path d="M19.2984 24.8177C19.2984 24.8898 19.2984 24.9721 19.2984 25.0442C19.2984 25.5591 18.9792 25.9195 18.5261 25.9298C18.0936 25.9401 17.764 25.6003 17.7125 25.1163C17.661 24.622 17.6096 24.1174 17.4963 23.6334C16.9711 21.4606 15.0763 19.7409 12.852 19.401C12.4813 19.3393 12.1002 19.329 11.7398 19.2569C11.3279 19.1848 11.1013 18.8964 11.091 18.5051C11.091 18.1138 11.3073 17.774 11.7192 17.7328C12.1414 17.6916 12.5739 17.7122 12.9858 17.774C15.3543 18.1653 17.1565 19.4113 18.3613 21.4915C18.9483 22.511 19.2469 23.6334 19.2984 24.8177Z" fill="white"/>
</svg>
