<svg width="234" height="41" viewBox="0 0 234 41" fill="none" xmlns="http://www.w3.org/2000/svg">
<path d="M57.6078 8.49559C58.0186 8.49559 58.4568 8.53667 58.9224 8.61883C59.4153 8.70099 59.8398 8.85162 60.1959 9.07071C60.5519 9.26242 60.7299 9.56368 60.7299 9.97448C60.7299 10.2757 60.6204 10.5496 60.4013 10.7961C60.1822 11.0152 59.9357 11.1247 59.6618 11.1247C59.388 11.1247 59.0456 11.0563 58.6348 10.9193C58.224 10.755 57.7858 10.6728 57.3203 10.6728C56.7451 10.6728 56.2522 10.8098 55.8414 11.0836C55.4306 11.3301 55.1156 11.6999 54.8965 12.1928C54.6774 12.6584 54.5679 13.2335 54.5679 13.9182V37.4983C54.5679 37.8269 54.4446 38.1145 54.1981 38.361C53.9791 38.6075 53.6915 38.7307 53.3355 38.7307C52.9794 38.7307 52.6782 38.6075 52.4317 38.361C52.2126 38.1145 52.1031 37.8269 52.1031 37.4983V13.9182C52.1031 12.1654 52.6097 10.8235 53.623 9.89232C54.6637 8.96117 55.992 8.49559 57.6078 8.49559ZM59.1689 18.1495C59.4975 18.1495 59.7714 18.259 59.9905 18.4781C60.2096 18.6972 60.3191 18.9711 60.3191 19.2997C60.3191 19.6284 60.2096 19.9022 59.9905 20.1213C59.7714 20.3404 59.4975 20.45 59.1689 20.45H49.1042C48.8029 20.45 48.5291 20.3404 48.2826 20.1213C48.0635 19.8748 47.9539 19.601 47.9539 19.2997C47.9539 18.9437 48.0635 18.6698 48.2826 18.4781C48.5291 18.259 48.8029 18.1495 49.1042 18.1495H59.1689Z" fill="white"/>
<path d="M82.024 17.7387C82.38 17.7387 82.6676 17.8619 82.8867 18.1084C83.1331 18.3549 83.2564 18.6561 83.2564 19.0121V37.4983C83.2564 37.8269 83.1331 38.1145 82.8867 38.361C82.6402 38.6075 82.3526 38.7307 82.024 38.7307C81.6679 38.7307 81.3667 38.6075 81.1202 38.361C80.9011 38.1145 80.7915 37.8269 80.7915 37.4983V32.6097L81.4899 32.2811C81.4899 33.0479 81.2708 33.8284 80.8326 34.6227C80.4218 35.4169 79.8467 36.1563 79.1073 36.841C78.3678 37.5257 77.4914 38.0871 76.4781 38.5253C75.4922 38.9361 74.4241 39.1415 73.2739 39.1415C71.4115 39.1415 69.7409 38.6622 68.2621 37.7037C66.8106 36.7452 65.6603 35.4306 64.8113 33.76C63.9897 32.0894 63.5789 30.2134 63.5789 28.132C63.5789 25.9958 64.0034 24.1198 64.8524 22.504C65.7014 20.8608 66.8516 19.5736 68.3031 18.6424C69.7546 17.7113 71.3979 17.2457 73.2328 17.2457C74.4104 17.2457 75.5059 17.4511 76.5192 17.8619C77.5599 18.2727 78.4637 18.8341 79.2305 19.5462C79.9973 20.2583 80.5862 21.0799 80.997 22.011C81.4351 22.9148 81.6542 23.8596 81.6542 24.8456L80.7915 24.2293V19.0121C80.7915 18.6561 80.9011 18.3549 81.1202 18.1084C81.3667 17.8619 81.6679 17.7387 82.024 17.7387ZM73.4793 36.841C74.9308 36.841 76.2179 36.4713 77.3408 35.7318C78.4637 34.965 79.34 33.9243 79.9699 32.6097C80.6272 31.2678 80.9559 29.7752 80.9559 28.132C80.9559 26.5162 80.6272 25.0646 79.9699 23.7775C79.34 22.4903 78.4637 21.4633 77.3408 20.6964C76.2179 19.9296 74.9308 19.5462 73.4793 19.5462C72.0551 19.5462 70.768 19.9159 69.6177 20.6554C68.4948 21.3948 67.6048 22.4081 66.9475 23.6953C66.3176 24.9825 66.0026 26.4614 66.0026 28.132C66.0026 29.7752 66.3176 31.2678 66.9475 32.6097C67.6048 33.9243 68.4948 34.965 69.6177 35.7318C70.7406 36.4713 72.0278 36.841 73.4793 36.841ZM73.1917 16.0544C73.0548 16.0544 72.9041 15.9859 72.7398 15.849C72.6029 15.6846 72.5344 15.5066 72.5344 15.3149C72.5344 15.1506 72.6029 14.9589 72.7398 14.7398L75.2457 10.8372C75.3826 10.6181 75.5607 10.4127 75.7798 10.221C76.0262 10.0293 76.3138 9.9334 76.6424 9.9334C77.0532 9.9334 77.3819 10.0429 77.6284 10.262C77.8748 10.4811 77.9844 10.7961 77.957 11.2069C77.957 11.3986 77.9159 11.5766 77.8338 11.7409C77.779 11.8779 77.6831 12.0148 77.5462 12.1517L74.4652 15.3971C74.3009 15.5888 74.1092 15.7531 73.8901 15.89C73.671 15.9996 73.4382 16.0544 73.1917 16.0544Z" fill="white"/>
<path d="M98.9673 17.2457C100.282 17.2457 101.487 17.3963 102.582 17.6976C103.678 17.9714 104.554 18.3549 105.212 18.8478C105.896 19.3408 106.239 19.8748 106.239 20.45C106.239 20.7238 106.143 20.9977 105.951 21.2716C105.759 21.518 105.499 21.6413 105.17 21.6413C104.842 21.6413 104.568 21.5591 104.349 21.3948C104.157 21.2305 103.952 21.0388 103.733 20.8197C103.541 20.6006 103.253 20.3952 102.87 20.2035C102.514 20.0392 102.007 19.8885 101.35 19.7516C100.693 19.6147 99.9396 19.5462 99.0906 19.5462C97.5569 19.5462 96.1739 19.9296 94.9415 20.6964C93.7091 21.4633 92.7368 22.504 92.0248 23.8185C91.3127 25.1057 90.9567 26.5572 90.9567 28.1731C90.9567 29.8163 91.299 31.2952 91.9837 32.6097C92.6684 33.9243 93.6132 34.965 94.8182 35.7318C96.0233 36.4713 97.4337 36.841 99.0495 36.841C100.145 36.841 100.994 36.7452 101.596 36.5534C102.199 36.3617 102.719 36.1426 103.158 35.8962C103.678 35.5949 104.048 35.3073 104.267 35.0335C104.513 34.7322 104.828 34.5816 105.212 34.5816C105.568 34.5816 105.828 34.6911 105.992 34.9102C106.184 35.1019 106.28 35.3621 106.28 35.6908C106.28 36.1289 105.951 36.6219 105.294 37.1696C104.664 37.69 103.787 38.1556 102.665 38.5664C101.542 38.9498 100.255 39.1415 98.803 39.1415C96.749 39.1415 94.9415 38.6622 93.3804 37.7037C91.8468 36.7452 90.6417 35.4443 89.7654 33.8011C88.9164 32.1305 88.4919 30.2545 88.4919 28.1731C88.4919 26.1738 88.93 24.3526 89.8064 22.7094C90.6828 21.0662 91.9015 19.7516 93.4626 18.7657C95.051 17.7524 96.8859 17.2457 98.9673 17.2457Z" fill="white"/>
<path d="M113.369 37.4983C113.369 37.8269 113.246 38.1145 112.999 38.361C112.753 38.6075 112.465 38.7307 112.137 38.7307C111.781 38.7307 111.48 38.6075 111.233 38.361C111.014 38.1145 110.904 37.8269 110.904 37.4983V18.6013C110.904 18.2727 111.014 17.9851 111.233 17.7387C111.48 17.4922 111.781 17.3689 112.137 17.3689C112.493 17.3689 112.78 17.4922 112.999 17.7387C113.246 17.9851 113.369 18.2727 113.369 18.6013V37.4983ZM112.137 14.6166C111.562 14.6166 111.123 14.4933 110.822 14.2468C110.548 13.973 110.411 13.5895 110.411 13.0966V12.6858C110.411 12.1928 110.562 11.8231 110.863 11.5766C111.192 11.3027 111.63 11.1658 112.178 11.1658C112.698 11.1658 113.095 11.3027 113.369 11.5766C113.67 11.8231 113.821 12.1928 113.821 12.6858V13.0966C113.821 13.5895 113.67 13.973 113.369 14.2468C113.095 14.4933 112.685 14.6166 112.137 14.6166Z" fill="white"/>
<path d="M122.484 37.4983C122.484 37.8269 122.36 38.1145 122.114 38.361C121.867 38.6075 121.58 38.7307 121.251 38.7307C120.895 38.7307 120.594 38.6075 120.347 38.361C120.128 38.1145 120.019 37.8269 120.019 37.4983V9.56368C120.019 9.23503 120.142 8.94747 120.388 8.70099C120.635 8.45451 120.923 8.33127 121.251 8.33127C121.607 8.33127 121.895 8.45451 122.114 8.70099C122.36 8.94747 122.484 9.23503 122.484 9.56368V37.4983Z" fill="white"/>
<path d="M139.305 17.1635C141.112 17.1635 142.536 17.5606 143.577 18.3549C144.645 19.1217 145.398 20.1624 145.836 21.477C146.302 22.7641 146.535 24.202 146.535 25.7904V37.0464C146.535 37.512 146.37 37.9091 146.042 38.2377C145.741 38.5664 145.357 38.7307 144.892 38.7307C144.426 38.7307 144.029 38.5664 143.7 38.2377C143.399 37.9091 143.248 37.512 143.248 37.0464V25.7904C143.248 24.7497 143.098 23.8185 142.797 22.9969C142.495 22.1479 141.989 21.477 141.277 20.984C140.592 20.4637 139.647 20.2035 138.442 20.2035C137.319 20.2035 136.292 20.4637 135.361 20.984C134.43 21.477 133.69 22.1479 133.143 22.9969C132.595 23.8185 132.321 24.7497 132.321 25.7904V37.0464C132.321 37.512 132.157 37.9091 131.828 38.2377C131.527 38.5664 131.143 38.7307 130.678 38.7307C130.212 38.7307 129.815 38.5664 129.486 38.2377C129.185 37.9091 129.035 37.512 129.035 37.0464V9.97448C129.035 9.5089 129.185 9.12549 129.486 8.82423C129.815 8.49559 130.212 8.33127 130.678 8.33127C131.171 8.33127 131.568 8.49559 131.869 8.82423C132.17 9.12549 132.321 9.5089 132.321 9.97448V22.2575L131.499 23.1613C131.636 22.4492 131.938 21.7371 132.403 21.0251C132.869 20.2856 133.458 19.6284 134.17 19.0532C134.882 18.4781 135.676 18.0262 136.552 17.6976C137.429 17.3415 138.346 17.1635 139.305 17.1635Z" fill="white"/>
<path d="M172.794 28.0498C172.794 30.186 172.315 32.0894 171.356 33.76C170.425 35.4306 169.152 36.7452 167.536 37.7037C165.947 38.6622 164.154 39.1415 162.154 39.1415C160.155 39.1415 158.348 38.6622 156.732 37.7037C155.116 36.7452 153.829 35.4306 152.87 33.76C151.939 32.0894 151.473 30.186 151.473 28.0498C151.473 25.9136 151.939 24.0103 152.87 22.3397C153.829 20.6691 155.116 19.3545 156.732 18.3959C158.348 17.4374 160.155 16.9581 162.154 16.9581C164.154 16.9581 165.947 17.4374 167.536 18.3959C169.152 19.3545 170.425 20.6691 171.356 22.3397C172.315 24.0103 172.794 25.9136 172.794 28.0498ZM169.508 28.0498C169.508 26.4614 169.179 25.0646 168.522 23.8596C167.892 22.6546 167.015 21.7098 165.893 21.0251C164.797 20.3404 163.551 19.9981 162.154 19.9981C160.758 19.9981 159.498 20.3404 158.375 21.0251C157.279 21.7098 156.403 22.6546 155.746 23.8596C155.089 25.0646 154.76 26.4614 154.76 28.0498C154.76 29.6109 155.089 30.9939 155.746 32.1989C156.403 33.404 157.279 34.3625 158.375 35.0746C159.498 35.7592 160.758 36.1016 162.154 36.1016C163.551 36.1016 164.797 35.7592 165.893 35.0746C167.015 34.3625 167.892 33.404 168.522 32.1989C169.179 30.9939 169.508 29.6109 169.508 28.0498Z" fill="white"/>
<path d="M187.884 17.1635C189.746 17.1635 191.253 17.6428 192.403 18.6013C193.581 19.5325 194.361 20.8608 194.744 22.5861H194.128L194.416 21.8467C194.744 21.0799 195.306 20.3404 196.1 19.6284C196.894 18.9163 197.812 18.3275 198.853 17.8619C199.893 17.3963 200.975 17.1635 202.098 17.1635C203.905 17.1635 205.33 17.5606 206.37 18.3549C207.411 19.1217 208.15 20.1624 208.589 21.477C209.054 22.7641 209.287 24.2157 209.287 25.8315V37.0464C209.287 37.512 209.123 37.9091 208.794 38.2377C208.493 38.5664 208.109 38.7307 207.644 38.7307C207.151 38.7307 206.754 38.5664 206.452 38.2377C206.151 37.9091 206 37.512 206 37.0464V25.9136C206 24.8456 205.836 23.887 205.508 23.038C205.206 22.1616 204.7 21.477 203.988 20.984C203.303 20.4637 202.358 20.2035 201.153 20.2035C200.03 20.2035 199.003 20.4637 198.072 20.984C197.141 21.477 196.401 22.1616 195.854 23.038C195.306 23.887 195.032 24.8456 195.032 25.9136V37.0464C195.032 37.512 194.881 37.9091 194.58 38.2377C194.279 38.5664 193.882 38.7307 193.389 38.7307C192.923 38.7307 192.526 38.5664 192.198 38.2377C191.896 37.9091 191.746 37.512 191.746 37.0464V25.7904C191.746 24.7497 191.595 23.8185 191.294 22.9969C191.02 22.1479 190.541 21.477 189.856 20.984C189.171 20.4637 188.226 20.2035 187.021 20.2035C185.926 20.2035 184.926 20.4637 184.023 20.984C183.119 21.477 182.393 22.1479 181.845 22.9969C181.298 23.8185 181.024 24.7497 181.024 25.7904V37.0464C181.024 37.512 180.859 37.9091 180.531 38.2377C180.229 38.5664 179.846 38.7307 179.38 38.7307C178.915 38.7307 178.518 38.5664 178.189 38.2377C177.888 37.9091 177.737 37.512 177.737 37.0464V19.1354C177.737 18.6698 177.888 18.2864 178.189 17.9851C178.518 17.6565 178.915 17.4922 179.38 17.4922C179.873 17.4922 180.271 17.6565 180.572 17.9851C180.873 18.2864 181.024 18.6698 181.024 19.1354V22.2575L180.12 23.2434C180.229 22.5314 180.503 21.8193 180.942 21.1072C181.407 20.3952 181.996 19.7379 182.708 19.1354C183.42 18.5329 184.214 18.0536 185.091 17.6976C185.967 17.3415 186.898 17.1635 187.884 17.1635Z" fill="white"/>
<path d="M225.186 39.1415C222.995 39.1415 221.078 38.6759 219.434 37.7448C217.791 36.8136 216.504 35.5401 215.573 33.9243C214.669 32.2811 214.217 30.3914 214.217 28.2552C214.217 25.8726 214.683 23.8459 215.614 22.1753C216.572 20.4773 217.805 19.1902 219.311 18.3138C220.845 17.41 222.461 16.9581 224.159 16.9581C225.418 16.9581 226.637 17.1909 227.815 17.6565C228.992 18.1221 230.033 18.8067 230.937 19.7105C231.841 20.5869 232.566 21.655 233.114 22.9148C233.662 24.1472 233.949 25.5302 233.977 27.0639C233.977 27.5021 233.813 27.8718 233.484 28.1731C233.155 28.4743 232.772 28.6249 232.334 28.6249H216.107L215.367 25.7904H231.183L230.526 26.3655V25.4618C230.417 24.3389 230.033 23.3804 229.376 22.5861C228.746 21.7645 227.965 21.1346 227.034 20.6964C226.13 20.2583 225.172 20.0392 224.159 20.0392C223.337 20.0392 222.515 20.1898 221.694 20.491C220.9 20.7649 220.174 21.2305 219.517 21.8878C218.887 22.5177 218.366 23.3393 217.955 24.3526C217.572 25.3659 217.38 26.5846 217.38 28.0087C217.38 29.5972 217.695 30.9939 218.325 32.1989C218.983 33.404 219.886 34.3625 221.037 35.0746C222.187 35.7592 223.529 36.1016 225.062 36.1016C226.021 36.1016 226.856 35.9783 227.568 35.7318C228.28 35.4854 228.897 35.1841 229.417 34.8281C229.937 34.4447 230.375 34.0612 230.731 33.6778C231.088 33.4313 231.43 33.3081 231.758 33.3081C232.169 33.3081 232.498 33.445 232.744 33.7189C233.018 33.9928 233.155 34.3214 233.155 34.7048C233.155 35.1704 232.936 35.5812 232.498 35.9372C231.731 36.7862 230.69 37.5394 229.376 38.1967C228.061 38.8266 226.665 39.1415 225.186 39.1415Z" fill="white"/>
<path fill-rule="evenodd" clip-rule="evenodd" d="M18.4441 2.94039L2.9064 12.5151V37.5379H33.9819V12.5151L18.4441 2.94039ZM17.0215 0.403138C17.8938 -0.13438 18.9945 -0.134379 19.8668 0.403138L35.5991 10.0978C36.4003 10.5915 36.8883 11.4653 36.8883 12.4065V37.7325C36.8883 39.2302 35.6742 40.4443 34.1765 40.4443H2.71179C1.21411 40.4443 0 39.2302 0 37.7325V12.4065C0 11.4653 0.487937 10.5915 1.28914 10.0978L17.0215 0.403138Z" fill="white"/>
<path d="M12.7808 16.3365C12.7808 15.6414 13.3443 15.0779 14.0394 15.0779H22.8495C23.5446 15.0779 24.1081 15.6414 24.1081 16.3365C24.1081 17.0316 23.5446 17.5951 22.8495 17.5951H14.0394C13.3443 17.5951 12.7808 17.0316 12.7808 16.3365Z" fill="white"/>
</svg>
