<svg width="149" height="26" viewBox="0 0 149 26" fill="none" xmlns="http://www.w3.org/2000/svg">
<path d="M8.61696 0.976958C8.94336 0.976958 9.29152 1.0096 9.66144 1.07488C10.0531 1.14016 10.3904 1.25984 10.6733 1.43392C10.9562 1.58624 11.0976 1.8256 11.0976 2.152C11.0976 2.39136 11.0106 2.60896 10.8365 2.8048C10.6624 2.97888 10.4666 3.06592 10.249 3.06592C10.0314 3.06592 9.75936 3.01152 9.43296 2.90272C9.10656 2.77216 8.7584 2.70688 8.38848 2.70688C7.93152 2.70688 7.53984 2.81568 7.21344 3.03328C6.88704 3.22912 6.6368 3.52288 6.46272 3.91456C6.28864 4.28448 6.2016 4.74144 6.2016 5.28544V24.0208C6.2016 24.2819 6.10368 24.5104 5.90784 24.7062C5.73376 24.9021 5.50528 25 5.2224 25C4.93952 25 4.70016 24.9021 4.50432 24.7062C4.33024 24.5104 4.2432 24.2819 4.2432 24.0208V5.28544C4.2432 3.8928 4.64576 2.82656 5.45088 2.08672C6.27776 1.34688 7.33312 0.976958 8.61696 0.976958ZM9.85728 8.64736C10.1184 8.64736 10.336 8.7344 10.5101 8.90848C10.6842 9.08256 10.7712 9.30016 10.7712 9.56128C10.7712 9.8224 10.6842 10.04 10.5101 10.2141C10.336 10.3882 10.1184 10.4752 9.85728 10.4752H1.86048C1.62112 10.4752 1.40352 10.3882 1.20768 10.2141C1.0336 10.0182 0.94656 9.80064 0.94656 9.56128C0.94656 9.2784 1.0336 9.0608 1.20768 8.90848C1.40352 8.7344 1.62112 8.64736 1.86048 8.64736H9.85728ZM28.0166 8.32096C28.2995 8.32096 28.528 8.41888 28.702 8.61472C28.8979 8.81056 28.9958 9.04992 28.9958 9.3328V24.0208C28.9958 24.2819 28.8979 24.5104 28.702 24.7062C28.5062 24.9021 28.2777 25 28.0166 25C27.7337 25 27.4944 24.9021 27.2985 24.7062C27.1244 24.5104 27.0374 24.2819 27.0374 24.0208V20.1366L27.5923 19.8755C27.5923 20.4848 27.4182 21.105 27.07 21.736C26.7436 22.367 26.2867 22.9546 25.6992 23.4986C25.1116 24.0426 24.4153 24.4886 23.6102 24.8368C22.8268 25.1632 21.9782 25.3264 21.0643 25.3264C19.5846 25.3264 18.2572 24.9456 17.0822 24.184C15.9289 23.4224 15.015 22.3779 14.3404 21.0506C13.6876 19.7232 13.3612 18.2326 13.3612 16.5789C13.3612 14.8816 13.6985 13.391 14.3731 12.1072C15.0476 10.8016 15.9616 9.77888 17.1148 9.03904C18.2681 8.2992 19.5737 7.92928 21.0316 7.92928C21.9673 7.92928 22.8377 8.09248 23.6428 8.41888C24.4697 8.74528 25.1878 9.19136 25.7971 9.75712C26.4064 10.3229 26.8742 10.9757 27.2006 11.7155C27.5488 12.4336 27.7228 13.1843 27.7228 13.9677L27.0374 13.4781V9.3328C27.0374 9.04992 27.1244 8.81056 27.2985 8.61472C27.4944 8.41888 27.7337 8.32096 28.0166 8.32096ZM21.2275 23.4986C22.3808 23.4986 23.4035 23.2048 24.2956 22.6173C25.1878 22.008 25.8841 21.1811 26.3846 20.1366C26.9068 19.0704 27.168 17.8845 27.168 16.5789C27.168 15.295 26.9068 14.1418 26.3846 13.119C25.8841 12.0963 25.1878 11.2803 24.2956 10.671C23.4035 10.0618 22.3808 9.75712 21.2275 9.75712C20.096 9.75712 19.0732 10.0509 18.1593 10.6384C17.2672 11.2259 16.56 12.031 16.0377 13.0538C15.5372 14.0765 15.287 15.2515 15.287 16.5789C15.287 17.8845 15.5372 19.0704 16.0377 20.1366C16.56 21.1811 17.2672 22.008 18.1593 22.6173C19.0515 23.2048 20.0742 23.4986 21.2275 23.4986ZM20.999 6.98272C20.8902 6.98272 20.7705 6.92832 20.64 6.81952C20.5312 6.68896 20.4768 6.54752 20.4768 6.3952C20.4768 6.26464 20.5312 6.11232 20.64 5.93824L22.631 2.83744C22.7398 2.66336 22.8812 2.50016 23.0553 2.34784C23.2512 2.19552 23.4796 2.11936 23.7408 2.11936C24.0672 2.11936 24.3283 2.2064 24.5241 2.38048C24.72 2.55456 24.807 2.8048 24.7852 3.1312C24.7852 3.28352 24.7526 3.42496 24.6873 3.55552C24.6438 3.66432 24.5676 3.77312 24.4588 3.88192L22.0108 6.46048C21.8803 6.6128 21.728 6.74336 21.5539 6.85216C21.3798 6.9392 21.1948 6.98272 20.999 6.98272ZM41.4788 7.92928C42.5233 7.92928 43.4807 8.04896 44.3511 8.28832C45.2215 8.50592 45.9178 8.81056 46.4401 9.20224C46.9841 9.59392 47.2561 10.0182 47.2561 10.4752C47.2561 10.6928 47.1799 10.9104 47.0276 11.128C46.8753 11.3238 46.6686 11.4218 46.4074 11.4218C46.1463 11.4218 45.9287 11.3565 45.7547 11.2259C45.6023 11.0954 45.4391 10.943 45.265 10.769C45.1127 10.5949 44.8842 10.4317 44.5796 10.2794C44.2967 10.1488 43.8942 10.0291 43.3719 9.92032C42.8497 9.81152 42.2513 9.75712 41.5767 9.75712C40.3582 9.75712 39.2593 10.0618 38.2801 10.671C37.3009 11.2803 36.5284 12.1072 35.9626 13.1517C35.3969 14.1744 35.114 15.3277 35.114 16.6115C35.114 17.9171 35.386 19.0922 35.93 20.1366C36.474 21.1811 37.2247 22.008 38.1822 22.6173C39.1396 23.2048 40.2602 23.4986 41.5441 23.4986C42.4145 23.4986 43.0891 23.4224 43.5678 23.2701C44.0465 23.1178 44.4599 22.9437 44.8081 22.7478C45.2215 22.5085 45.5153 22.28 45.6894 22.0624C45.8852 21.823 46.1355 21.7034 46.4401 21.7034C46.723 21.7034 46.9297 21.7904 47.0603 21.9645C47.2126 22.1168 47.2887 22.3235 47.2887 22.5846C47.2887 22.9328 47.0276 23.3245 46.5054 23.7597C46.0049 24.1731 45.3086 24.543 44.4164 24.8694C43.5242 25.1741 42.5015 25.3264 41.3482 25.3264C39.7162 25.3264 38.2801 24.9456 37.0398 24.184C35.8212 23.4224 34.8638 22.3888 34.1674 21.0832C33.4929 19.7558 33.1556 18.2653 33.1556 16.6115C33.1556 15.023 33.5038 13.576 34.2001 12.2704C34.8964 10.9648 35.8647 9.92032 37.105 9.13696C38.3671 8.33184 39.8251 7.92928 41.4788 7.92928ZM52.9217 24.0208C52.9217 24.2819 52.8238 24.5104 52.6279 24.7062C52.4321 24.9021 52.2036 25 51.9425 25C51.6596 25 51.4202 24.9021 51.2244 24.7062C51.0503 24.5104 50.9633 24.2819 50.9633 24.0208V9.0064C50.9633 8.74528 51.0503 8.5168 51.2244 8.32096C51.4202 8.12512 51.6596 8.0272 51.9425 8.0272C52.2254 8.0272 52.4538 8.12512 52.6279 8.32096C52.8238 8.5168 52.9217 8.74528 52.9217 9.0064V24.0208ZM51.9425 5.84032C51.4855 5.84032 51.1374 5.7424 50.898 5.54656C50.6804 5.32896 50.5716 5.02432 50.5716 4.63264V4.30624C50.5716 3.91456 50.6913 3.6208 50.9306 3.42496C51.1918 3.20736 51.5399 3.09856 51.9751 3.09856C52.3886 3.09856 52.7041 3.20736 52.9217 3.42496C53.161 3.6208 53.2807 3.91456 53.2807 4.30624V4.63264C53.2807 5.02432 53.161 5.32896 52.9217 5.54656C52.7041 5.7424 52.3777 5.84032 51.9425 5.84032ZM60.1634 24.0208C60.1634 24.2819 60.0655 24.5104 59.8697 24.7062C59.6738 24.9021 59.4453 25 59.1842 25C58.9013 25 58.662 24.9021 58.4661 24.7062C58.2921 24.5104 58.205 24.2819 58.205 24.0208V1.8256C58.205 1.56448 58.3029 1.336 58.4988 1.14016C58.6946 0.94432 58.9231 0.8464 59.1842 0.8464C59.4671 0.8464 59.6956 0.94432 59.8697 1.14016C60.0655 1.336 60.1634 1.56448 60.1634 1.8256V24.0208ZM73.5285 7.864C74.9646 7.864 76.0962 8.17952 76.923 8.81056C77.7717 9.41984 78.3701 10.2467 78.7182 11.2912C79.0882 12.3139 79.2731 13.4563 79.2731 14.7184V23.6618C79.2731 24.0317 79.1426 24.3472 78.8814 24.6083C78.6421 24.8694 78.3374 25 77.9675 25C77.5976 25 77.2821 24.8694 77.021 24.6083C76.7816 24.3472 76.6619 24.0317 76.6619 23.6618V14.7184C76.6619 13.8915 76.5422 13.1517 76.3029 12.4989C76.0635 11.8243 75.661 11.2912 75.0952 10.8995C74.5512 10.4861 73.8005 10.2794 72.843 10.2794C71.9509 10.2794 71.1349 10.4861 70.395 10.8995C69.6552 11.2912 69.0677 11.8243 68.6325 12.4989C68.1973 13.1517 67.9797 13.8915 67.9797 14.7184V23.6618C67.9797 24.0317 67.8491 24.3472 67.588 24.6083C67.3486 24.8694 67.044 25 66.6741 25C66.3042 25 65.9886 24.8694 65.7275 24.6083C65.4882 24.3472 65.3685 24.0317 65.3685 23.6618V2.152C65.3685 1.78208 65.4882 1.47744 65.7275 1.23808C65.9886 0.97696 66.3042 0.8464 66.6741 0.8464C67.0658 0.8464 67.3813 0.97696 67.6206 1.23808C67.86 1.47744 67.9797 1.78208 67.9797 2.152V11.9114L67.3269 12.6294C67.4357 12.0637 67.675 11.4979 68.045 10.9322C68.4149 10.3446 68.8827 9.8224 69.4485 9.36544C70.0142 8.90848 70.6453 8.54944 71.3416 8.28832C72.0379 8.00544 72.7669 7.864 73.5285 7.864ZM100.137 16.5136C100.137 18.2109 99.7564 19.7232 98.9948 21.0506C98.255 22.3779 97.2431 23.4224 95.9593 24.184C94.6972 24.9456 93.2719 25.3264 91.6835 25.3264C90.095 25.3264 88.6588 24.9456 87.375 24.184C86.0911 23.4224 85.0684 22.3779 84.3068 21.0506C83.567 19.7232 83.1971 18.2109 83.1971 16.5136C83.1971 14.8163 83.567 13.304 84.3068 11.9766C85.0684 10.6493 86.0911 9.6048 87.375 8.8432C88.6588 8.0816 90.095 7.7008 91.6835 7.7008C93.2719 7.7008 94.6972 8.0816 95.9593 8.8432C97.2431 9.6048 98.255 10.6493 98.9948 11.9766C99.7564 13.304 100.137 14.8163 100.137 16.5136ZM97.526 16.5136C97.526 15.2515 97.2649 14.1418 96.7427 13.1843C96.2422 12.2269 95.5459 11.4762 94.6537 10.9322C93.7833 10.3882 92.7932 10.1162 91.6835 10.1162C90.5737 10.1162 89.5727 10.3882 88.6806 10.9322C87.8102 11.4762 87.1139 12.2269 86.5916 13.1843C86.0694 14.1418 85.8083 15.2515 85.8083 16.5136C85.8083 17.7539 86.0694 18.8528 86.5916 19.8102C87.1139 20.7677 87.8102 21.5293 88.6806 22.095C89.5727 22.639 90.5737 22.911 91.6835 22.911C92.7932 22.911 93.7833 22.639 94.6537 22.095C95.5459 21.5293 96.2422 20.7677 96.7427 19.8102C97.2649 18.8528 97.526 17.7539 97.526 16.5136ZM112.127 7.864C113.606 7.864 114.803 8.2448 115.717 9.0064C116.653 9.74624 117.273 10.8016 117.578 12.1725H117.088L117.317 11.585C117.578 10.9757 118.024 10.3882 118.655 9.8224C119.286 9.25664 120.015 8.7888 120.842 8.41888C121.669 8.04896 122.528 7.864 123.42 7.864C124.856 7.864 125.988 8.17952 126.815 8.81056C127.642 9.41984 128.229 10.2467 128.577 11.2912C128.947 12.3139 129.132 13.4672 129.132 14.751V23.6618C129.132 24.0317 129.002 24.3472 128.741 24.6083C128.501 24.8694 128.197 25 127.827 25C127.435 25 127.119 24.8694 126.88 24.6083C126.641 24.3472 126.521 24.0317 126.521 23.6618V14.8163C126.521 13.9677 126.39 13.2061 126.129 12.5315C125.89 11.8352 125.487 11.2912 124.922 10.8995C124.378 10.4861 123.627 10.2794 122.67 10.2794C121.777 10.2794 120.961 10.4861 120.222 10.8995C119.482 11.2912 118.894 11.8352 118.459 12.5315C118.024 13.2061 117.806 13.9677 117.806 14.8163V23.6618C117.806 24.0317 117.686 24.3472 117.447 24.6083C117.208 24.8694 116.892 25 116.501 25C116.131 25 115.815 24.8694 115.554 24.6083C115.315 24.3472 115.195 24.0317 115.195 23.6618V14.7184C115.195 13.8915 115.075 13.1517 114.836 12.4989C114.618 11.8243 114.238 11.2912 113.694 10.8995C113.15 10.4861 112.399 10.2794 111.441 10.2794C110.571 10.2794 109.777 10.4861 109.059 10.8995C108.341 11.2912 107.764 11.8243 107.329 12.4989C106.894 13.1517 106.676 13.8915 106.676 14.7184V23.6618C106.676 24.0317 106.545 24.3472 106.284 24.6083C106.045 24.8694 105.74 25 105.37 25C105 25 104.685 24.8694 104.424 24.6083C104.184 24.3472 104.065 24.0317 104.065 23.6618V9.43072C104.065 9.0608 104.184 8.75616 104.424 8.5168C104.685 8.25568 105 8.12512 105.37 8.12512C105.762 8.12512 106.078 8.25568 106.317 8.5168C106.556 8.75616 106.676 9.0608 106.676 9.43072V11.9114L105.958 12.6947C106.045 12.129 106.262 11.5632 106.611 10.9974C106.981 10.4317 107.448 9.90944 108.014 9.43072C108.58 8.952 109.211 8.5712 109.907 8.28832C110.604 8.00544 111.343 7.864 112.127 7.864ZM141.764 25.3264C140.024 25.3264 138.5 24.9565 137.195 24.2166C135.889 23.4768 134.867 22.465 134.127 21.1811C133.409 19.8755 133.05 18.3741 133.05 16.6768C133.05 14.7837 133.419 13.1734 134.159 11.8461C134.921 10.497 135.9 9.47424 137.097 8.77792C138.315 8.05984 139.599 7.7008 140.948 7.7008C141.949 7.7008 142.918 7.88576 143.853 8.25568C144.789 8.6256 145.616 9.1696 146.334 9.88768C147.052 10.584 147.629 11.4326 148.064 12.4336C148.499 13.4128 148.728 14.5117 148.749 15.7302C148.749 16.0784 148.619 16.3722 148.358 16.6115C148.097 16.8509 147.792 16.9706 147.444 16.9706H134.551L133.963 14.7184H146.53L146.008 15.1754V14.4573C145.921 13.5651 145.616 12.8035 145.094 12.1725C144.593 11.5197 143.973 11.0192 143.233 10.671C142.515 10.3229 141.754 10.1488 140.948 10.1488C140.296 10.1488 139.643 10.2685 138.99 10.5078C138.359 10.7254 137.782 11.0954 137.26 11.6176C136.76 12.1181 136.346 12.7709 136.02 13.576C135.715 14.3811 135.563 15.3494 135.563 16.481C135.563 17.743 135.813 18.8528 136.314 19.8102C136.836 20.7677 137.554 21.5293 138.468 22.095C139.382 22.639 140.448 22.911 141.667 22.911C142.428 22.911 143.092 22.8131 143.658 22.6173C144.223 22.4214 144.713 22.1821 145.126 21.8992C145.54 21.5946 145.888 21.2899 146.171 20.9853C146.454 20.7894 146.726 20.6915 146.987 20.6915C147.313 20.6915 147.574 20.8003 147.77 21.0179C147.988 21.2355 148.097 21.4966 148.097 21.8013C148.097 22.1712 147.923 22.4976 147.574 22.7805C146.965 23.455 146.138 24.0534 145.094 24.5757C144.049 25.0762 142.939 25.3264 141.764 25.3264Z" fill="black"/>
</svg>
