<svg width="38" height="37" viewBox="0 0 38 37" fill="none" xmlns="http://www.w3.org/2000/svg">
<path d="M2.12597 12.7008C1.75623 12.7008 1.42611 12.7008 1.09599 12.7008C0.47537 12.6875 0.0792294 12.3292 0.0132056 11.7055C8.05758e-07 11.5462 0 11.3737 0 11.2144C0 7.97617 0 4.72465 0 1.48641C0 1.36696 0 1.26079 0 1.14135C0.0396143 0.371602 0.422552 0 1.18843 0C13.0595 0 24.9438 0 36.8149 0C37.5543 0 37.9901 0.424688 37.9901 1.16789C38.0033 4.63175 38.0033 8.08234 37.9901 11.5462C37.9901 12.2894 37.5543 12.7141 36.8281 12.7141C36.5376 12.7141 36.2339 12.7141 35.8773 12.7141C35.8773 12.953 35.8773 13.1653 35.8773 13.3777C35.8773 20.3983 35.8773 27.4189 35.8773 34.4263C35.8773 34.6253 35.8773 34.8244 35.8641 35.0235C35.7981 35.634 35.402 36.0056 34.7945 36.0454C34.6625 36.0587 34.5304 36.0454 34.3984 36.0454C24.1383 36.0454 13.8782 36.0454 3.6181 36.0454C3.52567 36.0454 3.42003 36.0454 3.3276 36.0454C2.57493 36.0719 2.11276 35.4747 2.12597 34.8377C2.16558 33.5503 2.13917 32.2497 2.13917 30.9624C2.13917 25.0831 2.13917 19.2039 2.13917 13.3379C2.12596 13.1255 2.12597 12.9397 2.12597 12.7008ZM4.29155 12.7141C4.29155 19.7613 4.29155 26.7952 4.29155 33.8423C14.1291 33.8423 23.927 33.8423 33.725 33.8423C33.725 26.7952 33.725 19.7613 33.725 12.7141C23.9138 12.7141 14.1159 12.7141 4.29155 12.7141ZM35.8245 2.14998C24.5609 2.14998 13.3632 2.14998 2.15237 2.14998C2.15237 4.96354 2.15237 7.73728 2.15237 10.5376C13.3896 10.5376 24.5873 10.5376 35.8245 10.5376C35.8245 7.72401 35.8245 4.95027 35.8245 2.14998Z" fill="white"/>
<path d="M18.9753 21.1946C17.2983 21.1946 15.6213 21.1946 13.9311 21.1946C12.8483 21.1946 11.9107 20.8495 11.2373 19.9869C10.445 18.9517 10.2866 17.8104 10.8544 16.6292C11.4222 15.448 12.3993 14.8508 13.6934 14.811C14.7234 14.7712 15.7665 14.7977 16.8097 14.7977C19.2658 14.7977 21.7219 14.7977 24.1648 14.7977C25.7625 14.7977 27.017 15.8196 27.3603 17.3591C27.7565 19.111 26.4624 20.969 24.6798 21.1282C23.9139 21.1946 23.1348 21.1813 22.3557 21.1813C21.2465 21.1946 20.1109 21.1946 18.9753 21.1946ZM18.9885 19.0579C20.6523 19.0579 22.3161 19.0579 23.9799 19.0579C24.2044 19.0579 24.4421 19.0313 24.6533 18.9517C25.1287 18.7792 25.3664 18.3147 25.274 17.7971C25.1947 17.3459 24.8382 17.0008 24.3628 16.9743C24.2308 16.961 24.0987 16.9743 23.9667 16.9743C20.6523 16.9743 17.3511 16.9743 14.0367 16.9743C13.9047 16.9743 13.7726 16.9743 13.6406 16.9743C13.152 17.0141 12.7691 17.3724 12.703 17.8369C12.637 18.3412 12.8879 18.8057 13.3765 18.965C13.5746 19.0313 13.799 19.0579 14.0103 19.0579C15.6609 19.0579 17.3247 19.0579 18.9885 19.0579Z" fill="white"/>
</svg>
