<svg width="43" height="42" viewBox="0 0 43 42" fill="none" xmlns="http://www.w3.org/2000/svg">
<path d="M21.9049 22.2265C21.7746 21.9895 21.668 21.7998 21.5258 21.5628C21.3718 21.6932 21.2533 21.7761 21.1467 21.871C19.962 22.9377 18.7655 24.0044 17.5808 25.0712C17.2372 25.3793 16.87 25.6045 16.3961 25.6045C15.6616 25.6164 15.0574 25.2371 14.7849 24.5852C14.5243 23.957 14.6665 23.234 15.1759 22.7481C15.709 22.2384 16.2658 21.7524 16.8226 21.2665C17.6756 20.4961 18.5404 19.7256 19.4052 18.9671C19.4881 18.8841 19.6066 18.8367 19.7251 18.7656C19.5355 18.493 19.4052 18.3033 19.2512 18.0781C19.1209 18.1848 19.0024 18.2796 18.8958 18.3744C17.5334 19.5953 16.1592 20.8161 14.7968 22.0369C14.3821 22.4162 13.9083 22.6177 13.3396 22.5229C12.6643 22.4162 12.2023 22.0369 12.0009 21.385C11.7995 20.7331 11.9417 20.1523 12.4393 19.6782C13.1264 19.0382 13.849 18.41 14.548 17.7818C15.3536 17.0588 16.1592 16.3358 16.9648 15.6246C17.0477 15.5416 17.1543 15.4942 17.2728 15.4231C17.0714 15.1624 16.9292 14.9727 16.7634 14.7594C16.2066 15.2572 15.6853 15.7194 15.1522 16.1935C14.0978 17.1418 13.0434 18.09 11.9772 19.0382C11.527 19.4412 11.0058 19.5953 10.4134 19.4412C9.15768 19.1093 8.73119 17.5803 9.65524 16.6677C10.1884 16.1343 10.7689 15.6483 11.3257 15.1505C12.2971 14.2853 13.2685 13.42 14.2281 12.5429C14.3466 12.4363 14.4651 12.3296 14.6072 12.1874C14.4295 11.9859 14.2874 11.8081 14.0978 11.6066C13.9201 11.7607 13.778 11.8792 13.6476 11.9977C12.1786 13.3134 10.7096 14.6053 9.2643 15.9446C8.36394 16.7743 6.812 16.4899 6.46844 15.1861C6.30258 14.546 6.48028 13.9771 6.96601 13.5386C7.68866 12.8748 8.41132 12.2348 9.14583 11.5829C9.9988 10.8124 10.8636 10.042 11.7166 9.27161C11.7403 9.2479 11.7521 9.2242 11.7995 9.15308C11.6574 8.999 11.5034 8.83306 11.3138 8.61971C11.1716 8.73824 11.0413 8.83306 10.9229 8.92788C9.63155 10.0776 8.3284 11.251 7.01339 12.4244C6.812 12.6022 6.62245 12.78 6.4092 12.9459C5.6747 13.5267 4.70326 13.4437 4.09907 12.7563C3.50672 12.0925 3.54226 11.1088 4.19384 10.4806C4.75064 9.94721 5.33114 9.4494 5.89979 8.93973C6.76461 8.15746 7.64128 7.37519 8.5061 6.60476C8.58903 6.53365 8.66011 6.43883 8.75488 6.33215C8.64826 6.23733 8.56533 6.16622 8.45871 6.0714C8.37578 6.13066 8.3047 6.16622 8.23362 6.21363C6.80015 7.43445 5.35483 8.64342 3.89767 9.86424C3.54226 10.1606 3.17501 10.362 2.70114 10.362C2.23911 10.362 1.82447 10.208 1.5046 9.87609C1.24397 9.60348 0.98334 9.30716 0.734555 9.0227C0.402843 8.63156 0.41469 8.37081 0.781943 8.01523C1.64676 7.14998 2.52343 6.28474 3.4001 5.4195C4.7151 4.11571 6.0301 2.82377 7.34511 1.53184C8.38763 0.488805 9.6434 -0.044564 11.1243 0.00284651C12.2616 0.0384044 13.3278 0.382131 14.1689 1.1644C15.8275 2.69339 17.4623 4.25794 19.0735 5.8462C22.1181 8.88047 24.5231 12.4126 26.8924 15.9683C28.9301 19.0145 30.9678 22.0606 32.9936 25.1067C34.2849 27.0506 35.8605 28.7455 37.4361 30.4523C38.7038 31.8272 39.9832 33.2139 41.2508 34.5888C42.0801 35.4896 42.5184 36.5327 42.4948 37.7653C42.4592 39.7329 40.9428 41.5463 38.9999 41.9138C36.986 42.293 35.126 41.4041 34.1901 39.5669C32.804 36.829 31.1573 34.257 29.1552 31.922C28.3022 30.9382 27.4374 29.9663 26.5252 29.0418C25.376 27.8921 23.9781 27.5958 22.4499 28.1291C21.5258 28.4492 20.6373 28.8403 19.7369 29.2077C19.1446 29.4448 18.9906 29.4092 18.5759 28.9351C18.3745 28.6981 18.1613 28.4729 17.9481 28.2477C17.178 27.3587 17.2254 26.4224 18.1021 25.6401C19.2394 24.6089 20.3885 23.5896 21.5377 22.5584C21.6561 22.4636 21.7627 22.3688 21.9049 22.2265ZM2.00217 8.5723C2.4642 9.34272 2.79591 9.2479 3.31717 8.7975C4.82172 7.50556 6.34997 6.24919 7.86637 4.98095C8.34024 4.58982 8.52979 4.56611 8.99182 4.95725C9.90403 5.71582 10.8162 6.46253 11.6811 7.26851C14.4414 9.88794 16.8818 12.8037 19.1446 15.8498C20.5662 17.7581 21.9286 19.7019 23.0422 21.8117C23.3621 22.428 23.3384 22.5703 22.829 23.0325C21.8338 23.9333 20.8268 24.8223 19.8199 25.7231C19.4881 26.0194 19.1564 26.3038 18.8366 26.612C18.5759 26.8609 18.5522 27.0743 18.7773 27.3469C18.9669 27.5839 19.192 27.8091 19.3934 28.0343C19.5592 27.9632 19.7014 27.9158 19.8317 27.8684C20.5544 27.5839 21.277 27.2521 22.0115 27.0031C24.0018 26.3275 25.7907 26.7068 27.3426 28.141C27.5677 28.3543 27.7691 28.5914 27.9823 28.8166C29.7949 30.7367 31.5246 32.7161 32.9106 34.9563C33.7399 36.2838 34.4863 37.6587 35.2445 39.0217C35.9908 40.3729 37.3414 41.0248 38.8104 40.7048C40.4689 40.3492 41.5352 38.6898 41.2153 37.0186C41.0613 36.2245 40.5874 35.6319 40.0543 35.0629C38.5261 33.4154 36.9978 31.7679 35.4933 30.0967C34.581 29.0892 33.657 28.0817 32.8751 26.9794C31.0507 24.3837 29.321 21.7169 27.5203 19.0974C25.6604 16.3713 23.8478 13.6215 21.8931 10.9665C19.4645 7.6715 16.5264 4.82687 13.4581 2.12447C11.9298 0.773268 9.72633 0.879942 8.23362 2.33782C6.84754 3.68902 5.4733 5.05207 4.09907 6.41512C3.4001 7.11443 2.71298 7.83744 2.00217 8.5723ZM12.7117 10.0183C12.5696 10.1368 12.4748 10.208 12.38 10.2791C10.9229 11.5829 9.45385 12.8985 7.99668 14.2023C7.91376 14.2853 7.81898 14.3564 7.7479 14.4512C7.59389 14.629 7.59389 14.8305 7.73605 15.0201C7.86637 15.1861 8.127 15.2453 8.34024 15.1268C8.43502 15.0675 8.51795 14.9846 8.61272 14.9016C9.91588 13.7282 11.2309 12.5666 12.534 11.3932C12.7828 11.168 13.0316 10.9428 13.3041 10.6821C13.1145 10.445 12.925 10.2435 12.7117 10.0183ZM15.4602 13.1119C15.3773 13.1593 15.3299 13.1711 15.3062 13.1948C13.7424 14.5934 12.1786 15.9921 10.6267 17.3907C10.5793 17.4262 10.5438 17.4736 10.5082 17.521C10.3542 17.7225 10.3661 17.9596 10.5438 18.1255C10.7096 18.2915 10.8992 18.327 11.1006 18.1848C11.2072 18.1137 11.3138 18.0189 11.4086 17.9359C12.8539 16.6439 14.2874 15.3639 15.7208 14.0719C15.8156 13.989 15.8985 13.8823 16.0052 13.7756C15.8156 13.5504 15.6498 13.3371 15.4602 13.1119ZM9.76187 7.12628C9.66709 7.20925 9.59601 7.24481 9.54862 7.29222C8.07961 8.60786 6.62245 9.9235 5.16528 11.2273C5.1179 11.2628 5.07051 11.3103 5.03497 11.3458C4.85726 11.5592 4.85726 11.7962 5.02312 11.9859C5.18898 12.1636 5.39037 12.1874 5.61546 12.0333C5.72209 11.9622 5.82871 11.8673 5.92348 11.7844C7.33326 10.528 8.73119 9.27161 10.141 8.00338C10.2239 7.92041 10.3068 7.83744 10.4016 7.73076C10.1884 7.52927 9.98696 7.33963 9.76187 7.12628ZM18.0073 16.3358C17.8888 16.4187 17.8296 16.4543 17.7822 16.5017C16.325 17.8055 14.8797 19.0974 13.4225 20.4012C13.3515 20.4605 13.2922 20.5198 13.233 20.5909C13.1027 20.7687 13.0908 20.9465 13.2212 21.1242C13.3633 21.3139 13.5647 21.3613 13.7661 21.2665C13.8727 21.2191 13.9675 21.1361 14.0504 21.065C15.4128 19.8442 16.7752 18.6233 18.1494 17.4025C18.2679 17.2958 18.3982 17.1892 18.5404 17.0706C18.3508 16.8099 18.1968 16.5965 18.0073 16.3358ZM20.3885 19.7019C20.0449 19.9982 19.7488 20.259 19.4526 20.5316C18.339 21.5272 17.2254 22.5229 16.1236 23.5185C15.8512 23.7674 15.8156 24.04 16.017 24.2533C16.2066 24.443 16.4553 24.4311 16.7278 24.2178C16.7634 24.1941 16.7989 24.1585 16.8226 24.1348C18.0784 23.0088 19.3341 21.8828 20.5781 20.7568C20.6728 20.6738 20.7558 20.5672 20.8624 20.4605C20.7084 20.2116 20.5662 19.9864 20.3885 19.7019Z" fill="white"/>
</svg>
