<svg width="47" height="41" viewBox="0 0 47 41" fill="none" xmlns="http://www.w3.org/2000/svg">
<path d="M40.7856 17.5549C42.9621 17.5549 44.073 19.2642 44.1863 20.858C44.1863 21.0889 44.175 21.9436 44.1523 22.1746C43.9596 23.318 43.4268 24.3343 42.6107 25.1428C41.7832 25.9512 40.763 26.4594 39.6294 26.6095C39.482 26.6326 39.346 26.6326 39.1986 26.6326C38.4165 26.6326 37.6457 26.3323 37.0335 25.8011C36.4101 25.2582 35.9793 24.4844 35.8433 23.6413C35.6279 22.3132 35.968 20.8811 36.7955 19.7146C37.6003 18.5596 38.7452 17.8205 40.0148 17.6011C40.2755 17.578 40.5362 17.5549 40.7856 17.5549ZM40.7856 15.707C40.4456 15.707 40.0828 15.7416 39.7201 15.7994C36.0587 16.4115 33.4401 20.2227 34.0523 23.9647C34.483 26.598 36.6935 28.4921 39.1986 28.4921C39.414 28.4921 39.6407 28.4805 39.8674 28.4459C42.9507 28.0301 45.4219 25.6047 45.9434 22.4633C46 22.1515 46.0114 20.9157 46 20.7425C45.83 18.1785 43.9256 15.707 40.7856 15.707Z" fill="white"/>
<path d="M21.4243 18.5828C24.7457 18.5828 27.3188 20.0264 29.2799 23.0177C31.0143 25.6509 32.6919 28.3304 34.2789 30.9867C35.4465 32.9501 35.3898 34.8673 34.1202 36.8422C33.2134 38.2512 31.5584 39.1289 29.8013 39.1289C29.1665 39.1289 28.5544 39.0135 27.9763 38.794C26.8768 38.3782 25.5845 37.9047 24.2242 37.6275C23.2607 37.4312 22.2858 37.3273 21.311 37.3273C19.2252 37.3273 17.0828 37.7892 14.929 38.7016C14.2149 39.0019 13.512 39.152 12.8432 39.152C12.0838 39.152 11.3129 38.9557 10.5761 38.563C8.78509 37.6275 7.74221 36.1146 7.64019 34.3129C7.64019 32.4997 7.98026 31.6912 8.35434 31.1022C8.72841 30.4901 9.11382 29.878 9.4879 29.2659C10.8482 27.0715 12.2538 24.7963 13.7048 22.625C15.3711 20.1535 17.6949 18.8022 20.6422 18.6059C20.8915 18.5943 21.1636 18.5828 21.4243 18.5828ZM21.4243 16.7349C21.1296 16.7349 20.8235 16.7464 20.5175 16.7695C17.0148 17.0005 14.1808 18.6405 12.2084 21.5971C10.3381 24.3805 8.59239 27.2678 6.82403 30.1205C6.13255 31.2292 5.82649 32.465 5.83783 34.3706C5.93985 36.6805 7.1981 38.8864 9.75995 40.2146C10.7688 40.7459 11.8117 40.9999 12.8546 40.9999C13.7841 40.9999 14.7136 40.8036 15.6431 40.3994C17.5022 39.614 19.3952 39.1636 21.3223 39.1636C22.1611 39.1636 23.0113 39.2444 23.8728 39.4292C25.0517 39.6718 26.2193 40.0875 27.3528 40.5149C28.1463 40.8151 28.9852 40.9653 29.8127 40.9653C32.1025 40.9653 34.3583 39.845 35.6392 37.847C37.2829 35.2946 37.3849 32.6382 35.8319 30.0166C34.2109 27.3025 32.5332 24.6115 30.7875 21.9782C28.5091 18.5366 25.3691 16.7349 21.4243 16.7349Z" fill="white"/>
<path d="M17.9217 1.84783C19.5427 1.84783 21.0503 2.79487 21.9458 4.37712C22.5693 5.47431 22.864 6.58304 22.8413 7.74952V7.76107V7.77261C22.8187 10.0478 22.0932 11.6532 20.5515 12.8428C19.758 13.4549 18.8399 13.7898 17.9103 13.7898C16.6634 13.7898 15.4958 13.2239 14.6117 12.2075C12.6053 9.88614 12.4919 6.17881 14.3623 3.76501C15.3145 2.52923 16.5727 1.84783 17.9217 1.84783ZM17.9217 -6.10352e-05C16.142 -6.10352e-05 14.3283 0.819939 12.9453 2.61008C10.5308 5.72839 10.6782 10.4174 13.2627 13.4202C14.521 14.8754 16.21 15.6377 17.9217 15.6377C19.2139 15.6377 20.5175 15.2104 21.6624 14.3211C23.7595 12.6926 24.6324 10.4405 24.6664 7.79571C24.7004 6.23656 24.2923 4.7929 23.5328 3.45318C22.2632 1.24726 20.1208 -6.10352e-05 17.9217 -6.10352e-05Z" fill="white"/>
<path d="M32.3519 5.53203C33.7916 5.53203 35.1065 6.39823 35.7866 7.78414C37.0789 10.452 35.968 14.0208 33.3948 15.4413C32.7487 15.7994 32.0685 15.9841 31.3884 15.9841C29.6314 15.9841 28.1691 14.7715 27.659 12.8889C27.5683 12.5309 27.5116 12.1151 27.4549 11.7455C27.4436 11.6301 27.4209 11.5261 27.4096 11.4222C27.591 8.71963 28.5658 7.04499 30.5496 5.994C31.1277 5.69372 31.7398 5.53203 32.3519 5.53203ZM32.3519 3.68414C31.4791 3.68414 30.5722 3.90358 29.7221 4.354C26.9788 5.79766 25.7659 8.23456 25.5959 11.5146C25.6752 12.0112 25.7319 12.7157 25.9133 13.3855C26.6728 16.1689 28.9172 17.832 31.3884 17.832C32.3406 17.832 33.3155 17.5895 34.2563 17.0698C37.6684 15.1872 39.1307 10.5098 37.4076 6.96414C36.3988 4.88527 34.4377 3.68414 32.3519 3.68414Z" fill="white"/>
<path d="M5.40709 10.9025C6.12124 10.9025 6.88073 11.1796 7.67422 11.7225C8.69443 12.4154 9.43124 13.5126 9.74864 14.8061C10.066 16.0996 9.93001 17.4278 9.35189 18.5365C8.76244 19.6799 7.60621 20.3844 6.34795 20.3844C5.84918 20.3844 5.37309 20.2689 4.91966 20.0495C2.99261 19.1025 1.9724 17.5548 1.82504 15.3027C1.89305 13.374 2.42582 12.2306 3.59339 11.4915C4.20552 11.0872 4.79497 10.9025 5.40709 10.9025ZM5.40709 9.05457C4.48891 9.05457 3.55939 9.33175 2.62987 9.92076C0.770823 11.0872 0.0680138 12.9467 0 15.3258C0.158699 18.1092 1.42829 20.3844 4.12617 21.7126C4.84031 22.0591 5.58846 22.2208 6.33662 22.2208C8.20699 22.2208 10.0207 21.1813 10.9502 19.3912C12.5712 16.2729 11.5623 12.1382 8.68309 10.1748C7.61754 9.44724 6.51799 9.05457 5.40709 9.05457Z" fill="white"/>
</svg>
