<svg width="37" height="43" viewBox="0 0 37 43" fill="none" xmlns="http://www.w3.org/2000/svg">
<path d="M20.0135 0.310865C20.3803 0.457707 20.7367 0.625527 21.0406 0.856279C22.3927 1.87369 22.9377 3.30015 22.6023 4.96786C22.2774 6.57264 21.2817 7.64249 19.7095 8.15644C19.6257 8.17741 19.5523 8.20888 19.416 8.25083C19.4789 9.35215 19.2274 10.5059 19.72 11.5863C20.4117 13.0757 21.6485 13.7469 23.2522 13.7469C26.3546 13.7574 29.4675 13.7469 32.57 13.7469C34.7501 13.7469 36.49 15.1944 36.9197 17.3236C37.4123 19.8094 35.5781 22.2638 33.0626 22.4945C33.0102 22.4945 32.9578 22.5155 32.8635 22.526C32.8635 22.7043 32.8635 22.8616 32.8635 23.0295C32.8635 29.2807 32.8635 35.5215 32.8635 41.7728C32.8635 42.7168 32.5805 43 31.6476 43C23.0845 43 14.5213 43 5.94763 43C4.99384 43 4.72133 42.7273 4.72133 41.7833C4.72133 35.532 4.72133 29.2912 4.72133 23.0399C4.72133 22.8721 4.72133 22.7043 4.72133 22.5155C4.60604 22.505 4.5117 22.4945 4.41737 22.505C2.12198 22.5889 0.109582 20.6485 0.00476926 18.3515C-0.100043 16.1174 1.53503 14.135 3.69417 13.7994C3.97716 13.7574 4.28112 13.7574 4.57459 13.7574C7.62463 13.7574 10.6747 13.7574 13.7247 13.7574C14.6995 13.7574 15.6009 13.5267 16.3555 12.8449C17.1102 12.1631 17.5399 11.324 17.5713 10.3066C17.6028 9.43606 17.5818 8.5655 17.5818 7.70542C17.5818 6.91877 17.8858 6.59361 18.6823 6.53068C19.9611 6.42579 20.9044 5.36643 20.8624 4.06583C20.831 2.80718 19.8038 1.81075 18.5251 1.78978C17.2883 1.7688 16.2402 2.71278 16.1354 3.96094C16.0935 4.41196 15.9887 4.83151 15.5065 4.99933C14.8672 5.23008 14.3012 4.75809 14.3012 4.02388C14.3012 2.42959 15.5589 0.719925 17.0787 0.226955C17.0892 0.226955 17.0892 0.226955 17.0997 0.226955C18.064 -0.0981958 19.0911 -0.0772184 20.0135 0.310865ZM31.0293 18.2676C22.8539 18.2676 14.71 18.2676 6.53458 18.2676C6.53458 24.1308 6.53458 29.9625 6.53458 35.8152C14.71 35.8152 22.8644 35.8152 31.0293 35.8152C31.0293 29.9625 31.0293 24.1308 31.0293 18.2676ZM6.54506 41.1645C14.71 41.1645 22.8644 41.1645 31.0293 41.1645C31.0293 39.9897 31.0293 38.836 31.0293 37.6717C22.8434 37.6717 14.6995 37.6717 6.5241 37.6717C6.5241 38.773 6.5241 39.8324 6.5241 40.8918C6.51362 40.9757 6.53458 41.0596 6.54506 41.1645ZM4.73181 20.7114C4.73181 19.694 4.73181 18.6766 4.73181 17.6487C4.73181 16.7048 5.00432 16.4216 5.95812 16.4216C14.5213 16.4216 23.0949 16.4216 31.6581 16.4216C32.591 16.4216 32.8739 16.7152 32.8739 17.6592C32.8739 18.6557 32.8739 19.6416 32.8739 20.659C33.8697 20.5436 34.5719 20.0611 34.9597 19.1906C35.3685 18.2885 35.2846 17.3865 34.6977 16.5684C34.1212 15.7713 33.2932 15.5195 32.3499 15.5195C29.3313 15.5195 26.3022 15.509 23.2836 15.5195C22.0783 15.5195 20.9358 15.2783 19.9611 14.5546C19.4265 14.156 18.9758 13.663 18.4727 13.2015C18.4098 13.2854 18.3155 13.4008 18.2107 13.5162C17.215 14.7119 15.9467 15.4566 14.385 15.4881C11.3245 15.5405 8.25351 15.5195 5.19298 15.53C4.80518 15.53 4.40689 15.5405 4.01909 15.5825C2.75085 15.7083 1.70273 16.9984 1.84947 18.2676C2.01717 19.8409 3.05481 20.7324 4.73181 20.7114Z" fill="white"/>
</svg>
